<svg width="1440" height="204" viewBox="0 0 1440 204" fill="none" xmlns="http://www.w3.org/2000/svg">
<path d="M0 203V0L8 6.5L25.5 19.5L45.5 32.5L74 49.5L107 66L142 81.5L169.5 92.5L196 102L222 111L252.5 120.5L291 130.5L328 139.5L361 147L407 155.5L444 161.5L508 169.5L545.5 173.5L610 178L648 179.5L696 181H746L783 180L825.5 178.5L855 176.5L881 174.5L916 171.5L935 169.5L960.5 166.5L980 164L1007 160L1042 154L1069 149L1104 142L1155 130L1211 114L1254.5 99.5L1302.5 81L1346 61L1384 40.5L1440 2.5V204L0 203Z" fill="#e8f7fc"/>
</svg>
