<?xml version="1.0" standalone="no"?>
<!DOCTYPE svg PUBLIC "-//W3C//DTD SVG 1.0//EN" "http://www.w3.org/TR/2001/REC-SVG-20010904/DTD/svg10.dtd">
<svg xmlns="http://www.w3.org/2000/svg" xmlns:xlink="http://www.w3.org/1999/xlink" id="body_1" width="1440" height="204">

<defs>
    <clipPath  id="1">

    <path id=""  clip-rule="evenodd" transform="matrix(1 0 0 1 0 0)"  d="M1080 0L1080 153L1080 153L0 153L0 153L0 0L0 0L1080 0z" />    </clipPath>
</defs>

<g transform="matrix(1.3333 0 0 1.3333 0 0)">
	<g clip-path="url(#1)" >
    <path id=""  transform="matrix(1 0 0 -1 0 153)"  d="M1080 152.25L1080 152.25L1080 152.25L1080 152.25L1080 152.25L1080 0L1080 0L1074 4.875L1074 4.875L1060.875 14.625L1060.875 14.625L1045.875 24.375L1045.875 24.375L1024.5 37.125L1024.5 37.125L999.75 49.5L999.75 49.5L973.5 61.125L973.5 61.125L952.875 69.375L952.875 69.375L933 76.5L933 76.5L913.5 83.25L913.5 83.25L890.625 90.375L890.625 90.375L861.75 97.875L861.75 97.875L834 104.625L834 104.625L809.25 110.25L809.25 110.25L774.75 116.625L774.75 116.625L747 121.125L747 121.125L699 127.125L699 127.125L670.875 130.125L670.875 130.125L622.5 133.5L622.5 133.5L594 134.625L594 134.625L558 135.75L558 135.75L558 135.75L558 135.75L520.5 135.75L520.5 135.75L492.75 135L492.75 135L460.875 133.875L460.875 133.875L438.75 132.375L438.75 132.375L419.25 130.875L419.25 130.875L393 128.625L393 128.625L378.75 127.125L378.75 127.125L359.625 124.875L359.625 124.875L345 123L345 123L324.75 120L324.75 120L298.5 115.5L298.5 115.5L278.25 111.75L278.25 111.75L252 106.5L252 106.5L213.75 97.5L213.75 97.5L171.75 85.5L171.75 85.5L139.125 74.625L139.125 74.625L103.125 60.75L103.125 60.75L70.5 45.75L70.5 45.75L42 30.375L42 30.375L0 1.875L0 1.875L0 1.875L0 1.875L0 153L0 153L1080 152.25z" stroke="#FFFFFF" stroke-width="1" fill="#e8f7fc" fill-rule="nonzero" />
	</g>
</g>
</svg>