<svg width="64" height="64" viewBox="0 0 64 64" fill="none" xmlns="http://www.w3.org/2000/svg">
<circle opacity="0.2" cx="32" cy="32" r="32" fill="#D9D1C9"/>
<g clip-path="url(#clip0_1_340)">
<path d="M22.2814 29.0853C22.1651 28.969 22.0039 28.9028 21.8394 28.9028C21.6744 28.9028 21.5137 28.969 21.3969 29.0853C21.2806 29.2021 21.2144 29.3628 21.2144 29.5278C21.2144 29.6922 21.2806 29.8535 21.3969 29.9698C21.5137 30.086 21.6744 30.1529 21.8394 30.1529C22.0038 30.1529 22.1651 30.086 22.2814 29.9698C22.3976 29.8529 22.4645 29.6923 22.4645 29.5278C22.4645 29.3634 22.3977 29.2021 22.2814 29.0853Z" fill="#777779"/>
<path d="M45.6913 22.3577C45.9983 22.2407 46.2634 22.1395 46.4655 22.0114C46.6927 21.8672 46.8839 21.7166 47.0498 21.5507C48.3176 20.2829 48.3173 18.2197 47.0492 16.9513C45.7809 15.6833 43.7178 15.683 42.4499 16.9508C42.2844 17.1164 42.1337 17.3074 41.9891 17.5351C41.8611 17.7371 41.76 18.0022 41.6429 18.309C41.5304 18.6043 41.2705 19.2857 41.0832 19.4016C41.0673 19.3963 41.0372 19.3837 40.9916 19.354C40.1057 18.777 38.1522 17.8577 36.6369 18.1502L36.1347 17.6479C35.6941 17.2073 35.1082 16.9647 34.4851 16.9647C33.862 16.9647 33.2762 17.2073 32.8356 17.6479C32.3949 18.0885 32.1523 18.6744 32.1523 19.2975C32.1523 19.6152 32.2157 19.9231 32.3359 20.2072C31.1471 20.1342 29.9335 20.5499 29.027 21.4564L22.8432 27.6402C22.5991 27.8842 22.5991 28.28 22.8432 28.5242C23.0873 28.7682 23.4831 28.7682 23.7272 28.5242L27.236 25.0154L29.4596 27.239C29.5817 27.3611 29.7416 27.4221 29.9016 27.4221C30.0616 27.4221 30.2216 27.361 30.3436 27.239C30.5877 26.995 30.5877 26.5992 30.3436 26.3551L28.12 24.1315L29.9111 22.3404C30.4878 21.7637 31.2544 21.4462 32.0699 21.4462C32.8854 21.4462 33.6521 21.7637 34.2289 22.3404L41.66 29.7715C42.2367 30.3482 42.5542 31.115 42.5542 31.9305C42.5542 32.746 42.2366 33.5126 41.66 34.0893L29.5845 46.1651C28.8039 46.9457 27.5336 46.9458 26.7529 46.1651L17.8355 37.2478C17.0548 36.4671 17.0548 35.1968 17.8355 34.4161L20.7115 31.5402C20.9555 31.2961 20.9555 30.9003 20.7115 30.6562C20.4674 30.4121 20.0716 30.4122 19.8275 30.6562L16.9515 33.5321C15.6835 34.8003 15.6835 36.8636 16.9515 38.1317L25.869 47.0491C26.503 47.6831 27.3358 48.0001 28.1687 48.0001C29.0016 48.0001 29.8344 47.6831 30.4685 47.0491L42.5441 34.9735C43.4505 34.067 43.8663 32.8534 43.7933 31.6645C44.0773 31.7848 44.3852 31.8482 44.703 31.8482C45.3261 31.8482 45.9119 31.6056 46.3526 31.165C47.2621 30.2555 47.2621 28.7754 46.3526 27.8659L45.8503 27.3637C46.1428 25.8483 45.2235 23.895 44.6465 23.009C44.6169 22.9634 44.6042 22.9334 44.5989 22.9175C44.7149 22.7301 45.3961 22.4704 45.6913 22.3577ZM44.7113 27.9925C44.7115 27.9927 44.7117 27.9929 44.7119 27.9931L45.4686 28.7498C45.8907 29.172 45.8907 29.8589 45.4685 30.281C45.2641 30.4855 44.9922 30.5981 44.703 30.5981C44.4138 30.5981 44.1419 30.4855 43.9374 30.2809L33.7196 20.0632C33.5152 19.8587 33.4026 19.5868 33.4026 19.2976C33.4026 19.0084 33.5152 18.7365 33.7197 18.532C33.9307 18.321 34.2081 18.2155 34.4853 18.2155C34.7626 18.2155 35.0399 18.321 35.2509 18.532L36.0079 19.2891C36.008 19.2892 36.0081 19.2893 36.0082 19.2894L44.7113 27.9925ZM43.5989 23.6912C44.0548 24.3912 44.4454 25.3088 44.5944 26.1077L37.8929 19.4063C38.6917 19.5551 39.6094 19.9458 40.3094 20.4017C40.7915 20.7155 41.2004 20.6812 41.4587 20.5972C42.2003 20.3559 42.5389 19.468 42.8109 18.7546C42.8921 18.5417 42.9842 18.3002 43.0446 18.2049C43.1392 18.0559 43.2338 17.9349 43.3338 17.8349C44.1142 17.0546 45.3844 17.0547 46.1651 17.8354C46.9458 18.6162 46.9461 19.8864 46.1658 20.6668C46.0657 20.7669 45.9447 20.8614 45.7959 20.9557C45.7002 21.0164 45.4587 21.1084 45.2457 21.1897C44.5324 21.4617 43.6447 21.8004 43.4033 22.5419C43.3194 22.8002 43.2851 23.2092 43.5989 23.6912Z" fill="#777779"/>
<path d="M39.3716 33.332L36.7653 30.7257C36.5212 30.4816 36.1254 30.4816 35.8813 30.7257C35.6372 30.9697 35.6372 31.3655 35.8813 31.6097L38.4876 34.216C38.6097 34.338 38.7696 34.399 38.9297 34.399C39.0896 34.399 39.2497 34.338 39.3717 34.216C39.6157 33.9719 39.6157 33.5761 39.3716 33.332Z" fill="#777779"/>
<path d="M36.3984 36.3046L33.7921 33.6983C33.5481 33.4542 33.1523 33.4542 32.9081 33.6983C32.6641 33.9423 32.6641 34.3382 32.9081 34.5823L35.5145 37.1886C35.6365 37.3106 35.7965 37.3716 35.9565 37.3716C36.1165 37.3716 36.2765 37.3106 36.3985 37.1886C36.6424 36.9445 36.6424 36.5487 36.3984 36.3046Z" fill="#777779"/>
<path d="M33.4262 39.2769L30.8199 36.6706C30.5759 36.4266 30.18 36.4266 29.936 36.6706C29.6919 36.9147 29.6919 37.3105 29.936 37.5546L32.5423 40.1609C32.6643 40.283 32.8243 40.344 32.9843 40.344C33.1442 40.344 33.3043 40.283 33.4263 40.1609C33.6703 39.9169 33.6703 39.5211 33.4262 39.2769Z" fill="#777779"/>
<path d="M30.4541 42.2494L27.8477 39.6431C27.6037 39.399 27.2079 39.399 26.9638 39.6431C26.7197 39.8871 26.7197 40.283 26.9638 40.5271L29.5701 43.1334C29.6922 43.2555 29.8521 43.3165 30.0121 43.3165C30.1721 43.3165 30.3321 43.2555 30.4541 43.1334C30.6982 42.8893 30.6982 42.4936 30.4541 42.2494Z" fill="#777779"/>
<path d="M32.4415 28.4533C32.3253 28.3371 32.164 28.2708 31.9996 28.2708C31.8352 28.2708 31.6739 28.3371 31.5576 28.4533C31.4408 28.5696 31.3745 28.7308 31.3745 28.8959C31.3745 29.0603 31.4408 29.2216 31.5576 29.3378C31.6739 29.4541 31.8351 29.521 31.9996 29.521C32.1639 29.521 32.3253 29.4542 32.4415 29.3378C32.5578 29.2216 32.6246 29.0603 32.6246 28.8959C32.6246 28.7309 32.5578 28.5702 32.4415 28.4533Z" fill="#777779"/>
</g>
<defs>
<clipPath id="clip0_1_340">
<rect width="32" height="32" fill="white" transform="translate(16 16)"/>
</clipPath>
</defs>
</svg>
