<svg width="64" height="64" viewBox="0 0 64 64" fill="none" xmlns="http://www.w3.org/2000/svg">
<circle opacity="0.2" cx="32" cy="32" r="32" fill="#961A49"/>
<g clip-path="url(#clip0_1_205)">
<path d="M32.0002 28.3952C28.1002 28.3952 24.9272 31.5681 24.9272 35.4681C24.9272 39.3682 28.1002 42.541 32.0002 42.541C35.9002 42.541 39.0731 39.3681 39.0731 35.4681C39.0731 31.5681 35.9002 28.3952 32.0002 28.3952ZM32.0002 41.6035C28.6171 41.6035 25.8647 38.8512 25.8647 35.4681C25.8647 32.085 28.6171 29.3326 32.0002 29.3326C35.3833 29.3326 38.1356 32.085 38.1356 35.4681C38.1356 38.8512 35.3833 41.6035 32.0002 41.6035Z" fill="#961A49"/>
<path d="M33.8707 33.5972V31.5742C33.8707 31.1434 33.5203 30.793 33.0895 30.793H30.9102C30.4794 30.793 30.129 31.1434 30.129 31.5742V33.5972H28.106C27.6751 33.5972 27.3247 33.9477 27.3247 34.3785V36.5577C27.3247 36.9885 27.6751 37.339 28.106 37.339H30.129V39.362C30.129 39.7928 30.4794 40.1432 30.9102 40.1432H33.0895C33.5203 40.1432 33.8707 39.7928 33.8707 39.362V37.339H35.8937C36.3245 37.339 36.675 36.9885 36.675 36.5577V34.3785C36.675 33.9477 36.3245 33.5972 35.8937 33.5972H33.8707ZM35.7375 36.4015H33.402C33.1431 36.4015 32.9332 36.6114 32.9332 36.8702V39.2057H31.0665V36.8702C31.0665 36.6114 30.8566 36.4015 30.5977 36.4015H28.2622V34.5347H30.5977C30.8566 34.5347 31.0665 34.3249 31.0665 34.066V31.7305H32.9332V34.066C32.9332 34.3249 33.1431 34.5347 33.402 34.5347H35.7375V36.4015Z" fill="#961A49"/>
<path d="M47.5312 38.9323C47.7901 38.9323 48 38.7224 48 38.4635V26.6964C48 25.5419 47.0607 24.6027 45.9062 24.6027H43.5955V24.0653C43.5955 23.5345 43.1637 23.1027 42.6329 23.1027H40.1171C40.1086 23.1027 40.1004 23.1038 40.0919 23.1039L40.092 19.4974C40.092 18.4878 39.2771 17.6664 38.2756 17.6664H29.3416C29.0828 17.6664 28.8729 17.8763 28.8729 18.1352C28.8729 18.3941 29.0828 18.6039 29.3416 18.6039H38.2755C38.7601 18.6039 39.1544 19.0048 39.1544 19.4974L39.1544 24.6027H37.9912V21.0709C37.9912 20.3644 37.4204 19.7897 36.7186 19.7897H27.2813C26.5796 19.7897 26.0087 20.3644 26.0087 21.0709V24.6026H24.8455V24.0652C24.8455 24.065 24.8455 24.0649 24.8455 24.0647L24.8456 19.4973C24.8456 19.0047 25.2399 18.6039 25.7245 18.6039H27.1541C27.413 18.6039 27.6229 18.394 27.6229 18.1351C27.6229 17.8763 27.413 17.6664 27.1541 17.6664H25.7245C24.7229 17.6664 23.9081 18.4878 23.9081 19.4973L23.908 23.1039C23.8996 23.1037 23.8914 23.1026 23.8829 23.1026H21.3671C20.8363 23.1026 20.4045 23.5344 20.4045 24.0652V24.6026H18.0938C16.9392 24.6026 16 25.5419 16 26.6964V44.2398C16 45.3943 16.9392 46.3335 18.0938 46.3335H45.9062C47.0607 46.3335 48 45.3943 48 44.2398V40.6509C48 40.3921 47.7901 40.1822 47.5312 40.1822C47.2724 40.1822 47.0625 40.3921 47.0625 40.6509V44.2398C47.0625 44.8773 46.5438 45.396 45.9062 45.396H41.8438V28.6027H42.6329C42.9994 28.6027 43.3184 28.3968 43.481 28.0948C43.5554 27.9583 43.5977 27.8018 43.5977 27.6357V25.5402H45.9062C46.5438 25.5402 47.0625 26.0589 47.0625 26.6964V38.4635C47.0625 38.7224 47.2724 38.9323 47.5312 38.9323ZM40.1171 24.0402H42.6329C42.6468 24.0402 42.658 24.0514 42.658 24.0653V27.6401C42.658 27.643 42.6573 27.6456 42.6564 27.6482C42.652 27.6556 42.6443 27.6607 42.6352 27.6607C41.7242 27.6607 41.029 27.6607 40.1193 27.6607C40.1055 27.6607 40.0942 27.6494 40.0942 27.6356L40.1171 24.0402ZM26.9462 21.0709C26.9462 20.8814 27.0965 20.7272 27.2813 20.7272H36.7186C36.9034 20.7272 37.0537 20.8814 37.0537 21.0709V24.6026C36.3251 24.6026 27.2319 24.6026 26.9462 24.6026V21.0709ZM21.342 24.0653C21.342 24.0514 21.3533 24.0402 21.3671 24.0402H23.8829C23.9224 24.0402 23.9057 23.8386 23.9057 27.6401C23.9057 27.6539 23.8945 27.6652 23.8807 27.6652C22.9713 27.6652 22.2751 27.6652 21.3671 27.6652C21.3533 27.6652 21.342 27.6539 21.342 27.6401V24.0653ZM16.9375 44.2398V26.6964C16.9375 26.0589 17.4562 25.5402 18.0938 25.5402H20.4022V27.6401C20.4022 28.1709 20.8341 28.6027 21.3648 28.6027H21.3671H22.1562V45.3961H18.0938C17.4562 45.3961 16.9375 44.8774 16.9375 44.2398ZM40.9062 45.3961H23.0938V28.6027H23.8807H23.8829C24.4137 28.6027 24.8455 28.1709 24.8455 27.6401V25.5402H39.1544V27.6401C39.1544 28.1709 39.5863 28.6027 40.117 28.6027H40.9062V45.3961Z" fill="#961A49"/>
</g>
<defs>
<clipPath id="clip0_1_205">
<rect width="32" height="32" fill="white" transform="translate(16 16)"/>
</clipPath>
</defs>
</svg>
