<svg width="64" height="64" viewBox="0 0 64 64" fill="none" xmlns="http://www.w3.org/2000/svg">
<circle opacity="0.2" cx="32" cy="32" r="32" fill="#E2231A"/>
<path d="M24.6924 23.8081C24.5761 23.6919 24.4149 23.625 24.2505 23.625C24.0861 23.625 23.9249 23.6919 23.8086 23.8081C23.6924 23.9244 23.6255 24.0856 23.6255 24.25C23.6255 24.4144 23.6924 24.5756 23.8086 24.6919C23.9249 24.8081 24.0861 24.875 24.2505 24.875C24.4155 24.875 24.5761 24.8081 24.6924 24.6919C24.8092 24.5756 24.8755 24.4144 24.8755 24.25C24.8755 24.0856 24.8092 23.9244 24.6924 23.8081Z" fill="#E2231A"/>
<path d="M45 16H25.5008C24.4669 16 23.6258 16.8411 23.6258 17.875V21.7812C23.6258 22.1264 23.9056 22.4062 24.2508 22.4062C24.596 22.4062 24.8758 22.1264 24.8758 21.7812V17.875C24.8758 17.5304 25.1562 17.25 25.5008 17.25H45C45.3446 17.25 45.625 17.5304 45.625 17.875V46.125C45.625 46.4696 45.3446 46.75 45 46.75H34.2675C34.3369 46.5544 34.375 46.3441 34.375 46.125V34.1003C34.375 32.9963 33.8275 31.9703 32.9105 31.3556L32 30.7453V30.6434C32.373 30.4268 32.625 30.0239 32.625 29.5625V27.3125C32.625 26.6233 32.0642 26.0625 31.375 26.0625H20.125C19.4358 26.0625 18.875 26.6233 18.875 27.3125V29.5625C18.875 30.0239 19.127 30.4268 19.5 30.6434V30.7453L18.5895 31.3556C17.6725 31.9703 17.125 32.9963 17.125 34.1003V46.125C17.125 47.1589 17.9661 48 19 48H26.7507H32.5H45C46.0339 48 46.875 47.1589 46.875 46.125V17.875C46.875 16.8411 46.0339 16 45 16ZM20.125 27.3125H31.375V29.5625H20.125V27.3125ZM33.125 46.125C33.125 46.4696 32.8446 46.75 32.5 46.75H26.7508H19C18.6554 46.75 18.375 46.4696 18.375 46.125V34.1003C18.375 33.414 18.7154 32.7761 19.2855 32.3939L20.473 31.598C20.6461 31.482 20.75 31.2873 20.75 31.0788V30.8125H30.75V31.0788C30.75 31.2873 30.8539 31.4819 31.027 31.598L32.2145 32.3939C32.7846 32.7761 33.125 33.4139 33.125 34.1003V46.125Z" fill="#E2231A"/>
<path d="M39.8433 18.5C38.3958 18.5 37.2183 19.6776 37.2183 21.125C37.2183 22.5724 38.3958 23.75 39.8433 23.75C41.2907 23.75 42.4683 22.5724 42.4683 21.125C42.4683 19.6776 41.2907 18.5 39.8433 18.5ZM39.8433 22.5C39.0851 22.5 38.4683 21.8832 38.4683 21.125C38.4683 20.3668 39.0851 19.75 39.8433 19.75C40.6014 19.75 41.2183 20.3668 41.2183 21.125C41.2183 21.8832 40.6014 22.5 39.8433 22.5Z" fill="#E2231A"/>
<path d="M30.6577 18.5C29.2103 18.5 28.0327 19.6776 28.0327 21.125C28.0327 22.5724 29.2103 23.75 30.6577 23.75C32.1052 23.75 33.2827 22.5724 33.2827 21.125C33.2827 19.6776 32.1052 18.5 30.6577 18.5ZM30.6577 22.5C29.8995 22.5 29.2827 21.8832 29.2827 21.125C29.2827 20.3668 29.8995 19.75 30.6577 19.75C31.4159 19.75 32.0327 20.3668 32.0327 21.125C32.0327 21.8832 31.4159 22.5 30.6577 22.5Z" fill="#E2231A"/>
<path d="M39.8433 25.7462C38.3958 25.7462 37.2183 26.9237 37.2183 28.3712C37.2183 29.8186 38.3958 30.9962 39.8433 30.9962C41.2907 30.9962 42.4683 29.8186 42.4683 28.3712C42.4683 26.9237 41.2907 25.7462 39.8433 25.7462ZM39.8433 29.7462C39.0851 29.7462 38.4683 29.1293 38.4683 28.3712C38.4683 27.613 39.0851 26.9962 39.8433 26.9962C40.6014 26.9962 41.2183 27.613 41.2183 28.3712C41.2183 29.1293 40.6014 29.7462 39.8433 29.7462Z" fill="#E2231A"/>
<path d="M39.8433 32.9924C38.3958 32.9924 37.2183 34.17 37.2183 35.6174C37.2183 37.0649 38.3958 38.2424 39.8433 38.2424C41.2907 38.2424 42.4683 37.0649 42.4683 35.6174C42.4683 34.17 41.2907 32.9924 39.8433 32.9924ZM39.8433 36.9924C39.0851 36.9924 38.4683 36.3756 38.4683 35.6174C38.4683 34.8592 39.0851 34.2424 39.8433 34.2424C40.6014 34.2424 41.2183 34.8592 41.2183 35.6174C41.2183 36.3756 40.6014 36.9924 39.8433 36.9924Z" fill="#E2231A"/>
<path d="M39.8433 40.2386C38.3958 40.2386 37.2183 41.4161 37.2183 42.8636C37.2183 44.311 38.3958 45.4886 39.8433 45.4886C41.2907 45.4886 42.4683 44.311 42.4683 42.8636C42.4683 41.4161 41.2907 40.2386 39.8433 40.2386ZM39.8433 44.2386C39.0851 44.2386 38.4683 43.6218 38.4683 42.8636C38.4683 42.1054 39.0851 41.4886 39.8433 41.4886C40.6014 41.4886 41.2183 42.1054 41.2183 42.8636C41.2183 43.6218 40.6014 44.2386 39.8433 44.2386Z" fill="#E2231A"/>
<path d="M28.25 36.6875H27.625V36.0625C27.625 35.0286 26.7839 34.1875 25.75 34.1875C24.7161 34.1875 23.875 35.0286 23.875 36.0625V36.6875H23.25C22.2161 36.6875 21.375 37.5286 21.375 38.5625C21.375 39.5964 22.2161 40.4375 23.25 40.4375H23.875V41.0625C23.875 42.0964 24.7161 42.9375 25.75 42.9375C26.7839 42.9375 27.625 42.0964 27.625 41.0625V40.4375H28.25C29.2839 40.4375 30.125 39.5964 30.125 38.5625C30.125 37.5286 29.2839 36.6875 28.25 36.6875ZM28.25 39.1875H27C26.6548 39.1875 26.375 39.4674 26.375 39.8125V41.0625C26.375 41.4071 26.0946 41.6875 25.75 41.6875C25.4054 41.6875 25.125 41.4071 25.125 41.0625V39.8125C25.125 39.4674 24.8452 39.1875 24.5 39.1875H23.25C22.9054 39.1875 22.625 38.9071 22.625 38.5625C22.625 38.2179 22.9054 37.9375 23.25 37.9375H24.5C24.8452 37.9375 25.125 37.6576 25.125 37.3125V36.0625C25.125 35.7179 25.4054 35.4375 25.75 35.4375C26.0946 35.4375 26.375 35.7179 26.375 36.0625V37.3125C26.375 37.6576 26.6548 37.9375 27 37.9375H28.25C28.5946 37.9375 28.875 38.2179 28.875 38.5625C28.875 38.9071 28.5947 39.1875 28.25 39.1875Z" fill="#E2231A"/>
<path d="M35.2505 20.5C34.9053 20.5 34.6255 20.7798 34.6255 21.125V29.0625C34.6255 29.4077 34.9053 29.6875 35.2505 29.6875C35.5957 29.6875 35.8755 29.4077 35.8755 29.0625V21.125C35.8755 20.7798 35.5957 20.5 35.2505 20.5Z" fill="#E2231A"/>
<path d="M35.6924 30.9331C35.5761 30.8169 35.4149 30.75 35.2505 30.75C35.0855 30.75 34.9249 30.8169 34.8086 30.9331C34.6917 31.0494 34.6255 31.2106 34.6255 31.375C34.6255 31.5394 34.6917 31.7006 34.8086 31.8169C34.9249 31.9331 35.0855 32 35.2505 32C35.4149 32 35.5755 31.9331 35.6924 31.8169C35.8086 31.7006 35.8755 31.5394 35.8755 31.375C35.8755 31.2106 35.8086 31.0494 35.6924 30.9331Z" fill="#E2231A"/>
</svg>
