<svg width="64" height="64" viewBox="0 0 64 64" fill="none" xmlns="http://www.w3.org/2000/svg">
<circle opacity="0.2" cx="32" cy="32" r="32" fill="#6A1E74"/>
<path d="M36.5625 16C30.2558 16 25.125 21.1308 25.125 27.4375C25.125 29.0304 25.4528 30.5482 26.0437 31.9274C26.0012 31.953 25.9608 31.9835 25.9241 32.0202L24.6557 33.2886C24.1671 33.7772 23.9938 34.4632 24.1348 35.0923L16.9885 42.2386C16.3511 42.876 16 43.7235 16 44.625C16 45.5265 16.3511 46.374 16.9885 47.0115C17.6259 47.649 18.4735 48 19.375 48C20.2765 48 21.1241 47.6489 21.7615 47.0115L28.9067 39.8662C29.0461 39.8975 29.1897 39.9141 29.3359 39.9141C29.8555 39.9141 30.3441 39.7118 30.7114 39.3443L31.9798 38.0759C32.0165 38.0392 32.047 37.9989 32.0726 37.9563C33.4519 38.5472 34.9696 38.875 36.5625 38.875C42.8692 38.875 48 33.7441 48 27.4375C48 21.1308 42.8692 16 36.5625 16ZM20.8776 46.1276C20.4763 46.5289 19.9426 46.75 19.375 46.75C18.8074 46.75 18.2738 46.5289 17.8724 46.1276C17.4711 45.7262 17.25 45.1926 17.25 44.625C17.25 44.0574 17.4711 43.5238 17.8724 43.1224L24.8054 36.1894L27.8106 39.1946L20.8776 46.1276ZM29.8276 38.4604C29.6962 38.5917 29.5216 38.6641 29.3359 38.6641C29.2551 38.6641 29.1768 38.6496 29.1028 38.6233C29.0549 38.5905 29.0034 38.5654 28.9501 38.5474C28.9124 38.5222 28.8771 38.4931 28.8443 38.4604L25.5396 35.1558C25.5064 35.1226 25.4774 35.0867 25.4523 35.049C25.4345 34.9964 25.4098 34.9458 25.3776 34.8985C25.2901 34.6532 25.3436 34.3685 25.5396 34.1725L26.6222 33.0899C27.6409 34.8742 29.1259 36.3592 30.9102 37.3779L29.8276 38.4604ZM36.5625 37.625C30.9451 37.625 26.375 33.0549 26.375 27.4375C26.375 25.8935 26.7209 24.4291 27.3383 23.1164C28.1691 23.2651 28.8018 23.9926 28.8018 24.8655C28.8018 26.5348 30.1599 27.8929 31.8292 27.8929C32.8092 27.8929 33.6066 28.6902 33.6066 29.6702C33.6066 31.3396 34.9646 32.6976 36.6339 32.6976C37.614 32.6976 38.4113 33.4949 38.4113 34.475C38.4113 35.5749 39.0011 36.5394 39.8808 37.0696C38.8401 37.4292 37.7238 37.625 36.5625 37.625ZM41.6189 36.2791C41.5618 36.2619 41.5014 36.2524 41.4386 36.2524C40.4586 36.2524 39.6612 35.455 39.6612 34.475C39.6612 32.8057 38.3032 31.4476 36.6339 31.4476C35.6538 31.4476 34.8565 30.6503 34.8565 29.6702C34.8565 28.0009 33.4984 26.6429 31.8291 26.6429C30.8491 26.6429 30.0518 25.8456 30.0518 24.8655C30.0518 23.5225 29.1724 22.3816 27.9596 21.9866C28.8812 20.5373 30.1587 19.3355 31.6682 18.5051C32.6006 18.5584 33.3429 19.3337 33.3429 20.2793C33.3429 21.9486 34.701 23.3067 36.3703 23.3067C37.3504 23.3067 38.1477 24.104 38.1477 25.0841C38.1477 26.7534 39.5057 28.1114 41.1751 28.1114C42.1551 28.1114 42.9524 28.9087 42.9524 29.8888C42.9524 31.2922 43.9124 32.4752 45.2101 32.8167C44.318 34.2456 43.0824 35.4389 41.6189 36.2791ZM44.2025 29.8888C44.2025 28.2195 42.8444 26.8614 41.1751 26.8614C40.1951 26.8614 39.3978 26.0641 39.3978 25.0841C39.3978 23.4148 38.0397 22.0567 36.3704 22.0567C35.3903 22.0567 34.593 21.2594 34.593 20.2793C34.593 19.2489 34.0751 18.3375 33.2864 17.7905C34.3149 17.4402 35.4169 17.25 36.5625 17.25C42.1799 17.25 46.75 21.8201 46.75 27.4375C46.75 28.9427 46.4215 30.3726 45.833 31.6596C44.9215 31.5846 44.2025 30.8194 44.2025 29.8888Z" fill="#6A1E74"/>
<path d="M24.2705 39.7299C24.0265 39.4859 23.6307 39.4859 23.3867 39.73L19.5585 43.5581C19.3145 43.8022 19.3145 44.1979 19.5585 44.442C19.6805 44.564 19.8405 44.625 20.0005 44.625C20.1604 44.625 20.3204 44.564 20.4424 44.442L24.2705 40.6138C24.5146 40.3698 24.5146 39.974 24.2705 39.7299Z" fill="#6A1E74"/>
<path d="M25.6763 38.3237C25.56 38.2075 25.3988 38.1406 25.2344 38.1406C25.07 38.1406 24.9087 38.2074 24.7925 38.3237C24.6762 38.44 24.6094 38.6012 24.6094 38.7656C24.6094 38.93 24.6762 39.0913 24.7925 39.2074C24.9087 39.3237 25.07 39.3906 25.2344 39.3906C25.3988 39.3906 25.56 39.3238 25.6763 39.2074C25.7925 39.0913 25.8594 38.93 25.8594 38.7656C25.8594 38.6012 25.7925 38.44 25.6763 38.3237Z" fill="#6A1E74"/>
<path d="M31.3222 20.9813C31.206 20.8644 31.0447 20.7982 30.8804 20.7982C30.7154 20.7982 30.5547 20.8644 30.4385 20.9813C30.3216 21.0975 30.2554 21.2582 30.2554 21.4232C30.2554 21.5875 30.3216 21.7488 30.4385 21.865C30.5547 21.9813 30.716 22.0482 30.8804 22.0482C31.0447 22.0482 31.206 21.9813 31.3222 21.865C31.4385 21.7482 31.5054 21.5875 31.5054 21.4232C31.5054 21.2582 31.4385 21.0975 31.3222 20.9813Z" fill="#6A1E74"/>
<path d="M36.0654 25.7244C35.9492 25.6082 35.7885 25.5413 35.6235 25.5413C35.4592 25.5413 35.2979 25.6082 35.1817 25.7244C35.0654 25.8407 34.9985 26.0019 34.9985 26.1663C34.9985 26.3313 35.0654 26.4919 35.1817 26.6082C35.2979 26.7244 35.4592 26.7913 35.6235 26.7913C35.7885 26.7913 35.9492 26.7244 36.0654 26.6082C36.1823 26.4919 36.2485 26.3313 36.2485 26.1663C36.2485 26.0019 36.1823 25.8407 36.0654 25.7244Z" fill="#6A1E74"/>
<path d="M40.9492 30.6082C40.8329 30.4913 40.6717 30.425 40.5073 30.425C40.3423 30.425 40.1817 30.4913 40.0654 30.6082C39.9492 30.7244 39.8823 30.885 39.8823 31.05C39.8823 31.2144 39.9492 31.3757 40.0654 31.4919C40.1817 31.6082 40.3423 31.675 40.5073 31.675C40.6717 31.675 40.8329 31.6082 40.9492 31.4919C41.0654 31.3757 41.1323 31.2144 41.1323 31.05C41.1323 30.8857 41.0654 30.7244 40.9492 30.6082Z" fill="#6A1E74"/>
<path d="M37.7451 19.4637C37.6288 19.3475 37.4676 19.2806 37.3032 19.2806C37.1388 19.2806 36.9776 19.3475 36.8613 19.4637C36.7451 19.58 36.6782 19.7412 36.6782 19.9056C36.6782 20.07 36.7451 20.2312 36.8613 20.3475C36.9776 20.4637 37.1388 20.5306 37.3032 20.5306C37.4676 20.5306 37.6288 20.4637 37.7451 20.3475C37.8613 20.2312 37.9282 20.07 37.9282 19.9056C37.9282 19.7412 37.8613 19.58 37.7451 19.4637Z" fill="#6A1E74"/>
<path d="M42.4888 24.2075C42.3725 24.0906 42.2113 24.0244 42.0469 24.0244C41.8825 24.0244 41.7212 24.0906 41.605 24.2075C41.4887 24.3238 41.4219 24.4844 41.4219 24.6494C41.4219 24.8138 41.4887 24.975 41.605 25.0913C41.7212 25.2075 41.8825 25.2744 42.0469 25.2744C42.2113 25.2744 42.3725 25.2075 42.4888 25.0913C42.605 24.975 42.6719 24.8138 42.6719 24.6494C42.6719 24.4844 42.605 24.3238 42.4888 24.2075Z" fill="#6A1E74"/>
<path d="M31.1606 29.6138C31.0438 29.4975 30.8831 29.4306 30.7181 29.4306C30.5538 29.4306 30.3925 29.4975 30.2763 29.6138C30.16 29.73 30.0938 29.8906 30.0938 30.0556C30.0938 30.22 30.16 30.3813 30.2763 30.4975C30.3931 30.6138 30.5538 30.6806 30.7181 30.6806C30.8825 30.6806 31.0438 30.6138 31.1606 30.4975C31.2769 30.3813 31.3431 30.22 31.3431 30.0556C31.3431 29.8906 31.2769 29.73 31.1606 29.6138Z" fill="#6A1E74"/>
<path d="M36.0439 34.497C35.9277 34.3807 35.7664 34.3138 35.6021 34.3138C35.4377 34.3138 35.2764 34.3806 35.1602 34.497C35.0439 34.6131 34.9771 34.7744 34.9771 34.9388C34.9771 35.1031 35.0439 35.2644 35.1602 35.3806C35.2764 35.4975 35.4377 35.5638 35.6021 35.5638C35.7664 35.5638 35.9277 35.4975 36.0439 35.3806C36.1602 35.2644 36.2271 35.1031 36.2271 34.9388C36.2271 34.7744 36.1602 34.6131 36.0439 34.497Z" fill="#6A1E74"/>
<path d="M45.7424 37.8577C45.5256 37.5905 45.1321 37.55 44.8638 37.7655L45.2505 38.2565L44.8614 37.7674C44.5913 37.9822 44.5465 38.3754 44.7614 38.6456C44.8848 38.8007 45.067 38.8815 45.2509 38.8815C45.3873 38.8815 45.5246 38.8371 45.6396 38.7456L45.6544 38.7337C45.9207 38.5159 45.9591 38.125 45.7424 37.8577Z" fill="#6A1E74"/>
<path d="M43.8946 39.2357C43.7255 38.9346 43.3445 38.828 43.0436 38.997C41.0755 40.1028 38.8344 40.6874 36.5625 40.6874C36.2173 40.6874 35.9375 40.9673 35.9375 41.3124C35.9375 41.6575 36.2173 41.9374 36.5625 41.9374C39.0484 41.9374 41.5013 41.2975 43.6559 40.0867C43.9568 39.9176 44.0637 39.5366 43.8946 39.2357Z" fill="#6A1E74"/>
<path d="M25.8275 18.6248C25.5512 18.4178 25.1595 18.474 24.9525 18.7502C23.0622 21.2727 22.063 24.2767 22.063 27.4375C22.063 27.7827 22.3428 28.0625 22.688 28.0625C23.0332 28.0625 23.313 27.7827 23.313 27.4375C23.313 24.5492 24.2258 21.8043 25.9528 19.4998C26.1598 19.2236 26.1037 18.8318 25.8275 18.6248Z" fill="#6A1E74"/>
</svg>
