<svg width="64" height="64" viewBox="0 0 64 64" fill="none" xmlns="http://www.w3.org/2000/svg">
<circle cx="32" cy="32" r="32" fill="#FAFAFA"/>
<path d="M43.3137 20.6863C40.2917 17.6643 36.2737 16 32 16C28.1528 16 24.4351 17.385 21.5312 19.9001C21.3328 20.072 21.3113 20.3723 21.4832 20.5706C21.655 20.769 21.9551 20.7905 22.1536 20.6187C24.8845 18.2532 28.3813 16.9504 32 16.9504C36.0198 16.9504 39.7991 18.5159 42.6416 21.3584C45.4841 24.2009 47.0496 27.9802 47.0496 32C47.0496 36.0198 45.4841 39.7991 42.6416 42.6416C39.7991 45.4841 36.0198 47.0496 32 47.0496C27.9802 47.0496 24.2009 45.4841 21.3584 42.6416C18.5159 39.7991 16.9504 36.0198 16.9504 32C16.9504 28.261 18.3306 24.6765 20.8369 21.9072C21.0129 21.7126 20.9978 21.4121 20.8032 21.2358C20.6086 21.0598 20.3081 21.0747 20.1321 21.2695C17.4675 24.2139 16 28.0247 16 32C16 36.2737 17.6643 40.2917 20.6863 43.3137C23.7083 46.3357 27.7263 48 32 48C36.2737 48 40.2917 46.3357 43.3137 43.3137C46.3357 40.2917 48 36.2737 48 32C48 27.7263 46.3357 23.7083 43.3137 20.6863Z" fill="#2D2926"/>
<path d="M31.3955 37.6953C29.928 37.6953 28.7339 38.9023 28.7339 40.3857C28.7339 41.8691 29.928 43.0762 31.3955 43.0762C32.116 43.0762 32.7944 42.7896 33.3059 42.2688C33.8015 41.7642 34.0859 41.0779 34.0859 40.3857C34.0859 39.6746 33.804 39.001 33.2922 38.489C32.7803 37.9773 32.1067 37.6953 31.3955 37.6953ZM31.3955 42.1257C30.4519 42.1257 29.6843 41.3452 29.6843 40.3857C29.6843 39.4263 30.4519 38.6458 31.3955 38.6458C32.3386 38.6458 33.1353 39.4426 33.1353 40.3857C33.1353 41.3289 32.3386 42.1257 31.3955 42.1257Z" fill="#2D2926"/>
<path d="M35.9756 30.2732C36.1736 30.4461 36.4736 30.4256 36.6462 30.2278C37.7915 28.9158 38.3723 27.5423 38.3723 26.1455C38.3723 24.6726 37.7107 23.3374 36.5095 22.386C35.302 21.4297 33.6633 20.9244 31.7703 20.9244C29.4285 20.9244 27.98 21.7149 27.1775 22.378C26.207 23.1797 25.6274 24.2549 25.6274 25.2539C25.6274 25.9034 25.8933 26.4754 26.3762 26.8648C26.7737 27.1853 27.303 27.3692 27.8289 27.3692C28.7349 27.3692 29.1321 26.7835 29.4512 26.3128C29.8555 25.7168 30.2371 25.1538 31.6836 25.1538C32.1794 25.1538 33.7974 25.2608 33.7974 26.6348C33.7974 27.6719 32.8386 28.408 31.9927 29.0574C31.7837 29.2176 31.5864 29.3692 31.4023 29.5254C30.4282 30.365 29.3098 31.6619 29.3098 34.2583C29.3098 35.7005 29.6597 36.6612 31.3674 36.6612C32.1238 36.6612 32.6948 36.4898 33.0647 36.1519C33.3752 35.8682 33.5396 35.472 33.5396 35.0059C33.5396 33.605 33.5396 32.9019 34.9683 31.7845L34.9927 31.7654C35.0557 31.7163 35.1284 31.6595 35.2085 31.5948C35.4128 31.43 35.4448 31.1309 35.28 30.9266C35.1152 30.7222 34.8162 30.6902 34.6118 30.855C34.5359 30.9163 34.4673 30.9698 34.408 31.0162L34.3828 31.0357C32.6724 32.3736 32.5891 33.3665 32.5891 35.0061C32.5891 35.2168 32.5891 35.7107 31.3674 35.7107C30.7708 35.7107 30.5891 35.586 30.4976 35.4771C30.3379 35.2874 30.2603 34.8887 30.2603 34.2583C30.2603 32.0608 31.1514 30.9966 32.02 30.2478C32.1838 30.1089 32.3721 29.9644 32.5715 29.8113C33.541 29.0669 34.748 28.1404 34.748 26.6348C34.748 25.1578 33.5452 24.2034 31.6836 24.2034C29.7334 24.2034 29.1157 25.1143 28.6646 25.7793C28.3562 26.2342 28.2156 26.4187 27.8289 26.4187C27.3262 26.4187 26.5781 26.1084 26.5781 25.2539C26.5781 24.699 26.8945 23.8445 27.783 23.1106C28.4656 22.5469 29.7112 21.8745 31.7705 21.8745C35.0981 21.8745 37.4219 23.6309 37.4219 26.1455C37.4219 27.3057 36.9202 28.4688 35.9304 29.6028C35.7576 29.8006 35.7781 30.1006 35.9756 30.2732Z" fill="#2D2926"/>
</svg>
