<svg width="64" height="64" viewBox="0 0 64 64" fill="none" xmlns="http://www.w3.org/2000/svg">
<circle opacity="0.2" cx="32" cy="32" r="32" fill="#F26A21"/>
<g clip-path="url(#clip0_1_369)">
<path d="M38.1864 20.1322C34.2577 18.5217 29.7606 18.5393 25.8482 20.1806L25.8205 20.1922C24.8656 20.5928 24.2919 21.5043 24.3928 22.4603C24.4266 22.7814 24.6978 23.02 25.0136 23.02C25.0355 23.02 25.0577 23.0188 25.08 23.0164C25.4232 22.9802 25.6722 22.6725 25.636 22.3292C25.5934 21.9262 25.862 21.5306 26.3042 21.3451L26.3318 21.3335C29.9405 19.8195 34.0885 19.8033 37.7123 21.289C38.1743 21.4783 38.4458 21.8871 38.3879 22.306C38.3407 22.648 38.5795 22.9635 38.9216 23.0107C39.2632 23.0575 39.5791 22.8191 39.6263 22.477C39.7633 21.4839 39.1847 20.5416 38.1864 20.1322Z" fill="#F26A21"/>
<path d="M47.3374 22.5777C46.201 20.9788 44.0306 20.5767 42.3962 21.6623L41.4321 22.303C39.6229 23.5051 37.4485 23.9587 35.3099 23.5803L34.389 23.4173C32.8259 23.141 31.1734 23.141 29.6099 23.4174L28.6892 23.5803C26.5502 23.9585 24.3762 23.5052 22.567 22.303L21.6028 21.6623C19.9687 20.5767 17.7983 20.9786 16.6616 22.5777C15.5764 24.1042 15.8524 26.2406 17.2901 27.4412L18.7273 28.6413L18.7432 28.6544C18.7568 28.6655 18.7651 28.6813 18.7679 28.7013C18.8716 29.436 19.2526 30.1644 19.8408 30.7526C20.4156 31.3275 21.1282 31.7062 21.8471 31.8191C22.627 31.9416 23.3553 31.7314 23.8444 31.2423C24.3333 30.7533 24.5436 30.0253 24.4212 29.245C24.3083 28.526 23.9296 27.8136 23.3547 27.2387C22.8208 26.7048 22.1579 26.3352 21.4879 26.1979C21.3515 26.17 21.2154 26.0947 21.0944 25.9805C21.0682 25.9557 21.041 25.9315 21.0126 25.9077L19.5739 24.7062C19.5566 24.6917 19.5526 24.6605 19.5657 24.6421C19.5819 24.6192 19.6075 24.6143 19.6311 24.63L20.5953 25.2707C22.1519 26.305 23.9119 26.952 25.7343 27.1803C26.5468 28.4206 26.7459 29.86 26.2771 31.1608C26.0571 31.7715 25.9615 32.4098 25.9929 33.0583C26.0437 34.1098 26.4343 35.1324 27.1224 36.0155C28.5735 37.8775 29.3404 40.1095 29.3404 42.4701V44.4381C29.3404 44.7832 29.6203 45.0632 29.9655 45.0632H34.0302C34.3754 45.0632 34.6553 44.7833 34.6553 44.4381V42.4708C34.6553 40.1821 35.4459 37.9297 36.9416 35.9572C37.6515 35.0211 38.0267 33.936 38.0267 32.8192C38.0267 32.2755 37.9366 31.739 37.759 31.2243C37.2967 29.8846 37.4894 28.4225 38.2837 27.18C40.1051 26.9503 41.8519 26.3019 43.404 25.2707L44.3498 24.6422C44.3799 24.6221 44.416 24.624 44.4265 24.6341C44.4316 24.639 44.4421 24.6491 44.4412 24.6703C44.441 24.6773 44.439 24.6949 44.4252 24.7063L42.9864 25.9078C42.9554 25.9338 42.925 25.9611 42.8935 25.9912C42.5287 26.3403 42.1424 26.6206 41.7454 26.8243C41.4139 26.9945 41.1036 27.2152 40.8232 27.4806C40.2326 28.0393 39.8343 28.741 39.7016 29.4565C39.5575 30.2332 39.7475 30.9667 40.2228 31.4691C40.6981 31.9714 41.4203 32.2021 42.2034 32.1008C42.9252 32.008 43.6479 31.649 44.2385 31.0903C45.0074 30.3628 45.4349 29.4183 45.4064 28.529L46.7092 27.4412C48.1467 26.2405 48.4228 24.1042 47.3374 22.5777ZM36.5772 31.632C36.7095 32.0152 36.7766 32.4147 36.7766 32.819C36.7766 33.6609 36.4892 34.4848 35.9455 35.2017C34.2836 37.3933 33.4051 39.9069 33.4051 42.4707V43.8129H30.5905V42.47C30.5905 39.8283 29.7322 37.3307 28.1084 35.247C27.5796 34.5683 27.2797 33.7905 27.2414 32.9978C27.2181 32.5148 27.2893 32.0393 27.4532 31.5847C27.9602 30.1775 27.8676 28.655 27.216 27.2727C27.6699 27.2727 28.1254 27.2474 28.5803 27.1952L28.5824 27.5637C28.5902 28.9141 29.1636 30.2143 30.1554 31.1307L31.3746 32.2574V33.859C31.3746 34.2041 31.6545 34.484 31.9997 34.484C32.3448 34.484 32.6248 34.2042 32.6248 33.859V32.2573L33.8439 31.1308C34.8357 30.2143 35.4091 28.9142 35.4169 27.5639L35.4191 27.1952C35.8748 27.2475 36.335 27.2739 36.7909 27.2739C36.7976 27.2739 36.8041 27.2737 36.8107 27.2737C36.1732 28.6585 36.0822 30.1972 36.5772 31.632ZM45.9077 26.4817L44.4684 27.6837C44.2372 27.8765 44.1183 28.1718 44.1503 28.4738C44.2076 29.0143 43.905 29.685 43.3792 30.1823C42.9852 30.5552 42.4984 30.8026 42.0437 30.8611C41.8189 30.89 41.4013 30.896 41.1309 30.61C40.6711 30.1239 40.9236 29.1067 41.6824 28.3887C41.8767 28.2048 42.09 28.0527 42.3162 27.9367C42.8207 27.6777 43.3059 27.3271 43.7579 26.8944C43.7677 26.885 43.7777 26.8758 43.788 26.8673L45.2265 25.666C45.5083 25.4307 45.6775 25.0839 45.6906 24.7148C45.7037 24.347 45.5591 23.9895 45.2939 23.734C44.8597 23.3157 44.1717 23.2598 43.658 23.601L42.7122 24.2295C40.9457 25.4033 38.8981 26.0238 36.7908 26.0239C36.2973 26.0239 35.7979 25.9893 35.3067 25.921C35.021 25.8817 34.7319 25.9667 34.5141 26.1553C34.2974 26.3428 34.1722 26.6148 34.1706 26.9014L34.1667 27.5568C34.1609 28.5623 33.7341 29.5304 32.9955 30.2129L31.9996 31.1328L31.0037 30.2125C30.2652 29.53 29.8383 28.5619 29.8325 27.5563L29.8287 26.9013C29.8271 26.6147 29.7019 26.3427 29.4851 26.155C29.3024 25.9968 29.0696 25.9113 28.8304 25.9113C28.7845 25.9113 28.7382 25.9145 28.6922 25.9208C26.1004 26.281 23.4705 25.6802 21.287 24.2293L20.323 23.5888C19.7358 23.1983 18.9556 23.3427 18.5467 23.9177C18.1568 24.4665 18.2561 25.2343 18.7726 25.6657L20.2109 26.8668C20.2193 26.8738 20.2274 26.881 20.2355 26.8887C20.5259 27.1632 20.8723 27.3478 21.2369 27.4225C21.6697 27.5113 22.108 27.7598 22.4706 28.1227C22.8542 28.5062 23.1151 28.986 23.1861 29.4389C23.2213 29.6628 23.2387 30.0801 22.9604 30.3583C22.6821 30.6365 22.2648 30.6192 22.0409 30.5841C21.5881 30.513 21.1083 30.2522 20.7247 29.8686C20.3328 29.4768 20.0708 28.9876 20.0057 28.5264C19.9588 28.1947 19.7913 27.8963 19.53 27.6829L18.0914 26.4815C17.1515 25.6966 16.971 24.3 17.6806 23.3019C18.4238 22.2565 19.8428 21.9937 20.9111 22.7035L21.8752 23.3441C23.9531 24.7248 26.4502 25.2461 28.9071 24.8112L29.8277 24.6483C31.2486 24.3971 32.7507 24.3971 34.1712 24.6482L35.0921 24.8112C37.5487 25.2459 40.046 24.7248 42.1239 23.3441L43.088 22.7035C44.1565 21.9937 45.5755 22.2565 46.3186 23.3019C46.3186 23.3019 46.3186 23.3019 46.3186 23.302C47.0281 24.3 46.8477 25.6967 45.9077 26.4817Z" fill="#F26A21"/>
<path d="M32.455 35.2919C32.3388 35.1757 32.1776 35.1094 32.0132 35.1094C31.8488 35.1094 31.6876 35.1757 31.5713 35.2919C31.4551 35.4088 31.3882 35.5694 31.3882 35.7344C31.3882 35.8988 31.455 36.0601 31.5713 36.1757C31.6876 36.2926 31.8488 36.3594 32.0132 36.3594C32.1776 36.3594 32.3388 36.2926 32.455 36.1757C32.5712 36.0601 32.6382 35.8988 32.6382 35.7344C32.6382 35.5694 32.5713 35.4088 32.455 35.2919Z" fill="#F26A21"/>
<path d="M33.324 37.2817C33.0799 37.0376 32.6842 37.0376 32.4401 37.2817C32.2055 37.5163 31.8237 37.5164 31.589 37.2817C31.3449 37.0377 30.9492 37.0377 30.705 37.2817C30.461 37.5258 30.461 37.9216 30.705 38.1657C31.066 38.5266 31.5403 38.7072 32.0145 38.7072C32.4887 38.7072 32.963 38.5266 33.324 38.1657C33.5681 37.9216 33.5681 37.5258 33.324 37.2817Z" fill="#F26A21"/>
</g>
<defs>
<clipPath id="clip0_1_369">
<rect width="32" height="32" fill="white" transform="translate(16 16)"/>
</clipPath>
</defs>
</svg>
