<svg width="64" height="64" viewBox="0 0 64 64" fill="none" xmlns="http://www.w3.org/2000/svg">
<circle opacity="0.2" cx="32" cy="32" r="32" fill="#00833D"/>
<path d="M37.2366 41.7994C37.4686 41.8608 37.7076 41.8919 37.9476 41.892C39.1805 41.892 40.4458 41.0696 41.6462 39.4761C44.3465 35.8914 46.1337 28.9731 44.3704 26.0094C44.3413 25.9601 44.3117 25.9115 44.2816 25.8638C42.9043 23.6628 40.2379 22.5396 37.6466 23.069C37.0543 23.1901 36.1731 23.4372 35.3396 23.9272C34.4938 24.4245 33.901 25.0511 33.5779 25.7897C33.0427 27.0134 33.2754 28.4663 34.2698 30.1085C35.5961 32.2985 35.2755 34.5593 34.9927 36.554C34.6655 38.862 34.3564 41.042 37.2366 41.7994ZM34.9116 29.7198C34.051 28.2987 33.8335 27.0776 34.2653 26.0904C34.963 24.4957 37.145 23.9371 37.7971 23.8038C38.1701 23.7276 38.5499 23.6892 38.9306 23.6892C40.8293 23.6892 42.6343 24.6447 43.6461 26.2616C43.6731 26.3047 43.6998 26.3484 43.7263 26.3929C44.4416 27.5951 44.5234 29.7679 43.9506 32.3544C43.3971 34.8523 42.312 37.346 41.0471 39.025C39.4876 41.0954 38.2179 41.2823 37.4273 41.0743C35.2921 40.5128 35.3787 39.1743 35.7353 36.6593C36.0208 34.6451 36.3762 32.1386 34.9113 29.7198H34.9116Z" fill="#00833D"/>
<path d="M34.9763 22.9906C35.0904 22.9906 35.2042 22.98 35.3163 22.9589C35.914 22.8464 36.4167 22.4564 36.732 21.86C37.032 21.2919 37.1262 20.5991 36.9964 19.9091C36.7226 18.4529 35.5236 17.4516 34.3233 17.677C33.7257 17.7892 33.2233 18.1795 32.9076 18.7759C32.6076 19.3439 32.5135 20.0367 32.6433 20.7267C32.8911 22.045 33.8975 22.9906 34.9763 22.9906ZM33.5707 19.1264C33.777 18.7362 34.0934 18.4832 34.4617 18.4139C34.5299 18.4011 34.5992 18.3946 34.6686 18.3946C35.3911 18.3946 36.0791 19.089 36.2593 20.0475C36.3618 20.5423 36.2947 21.0572 36.069 21.5092C35.8627 21.8995 35.5463 22.1524 35.178 22.2217C34.3842 22.3706 33.578 21.6379 33.3803 20.5881C33.2778 20.0933 33.3449 19.5784 33.5707 19.1264Z" fill="#00833D"/>
<path d="M38.9861 22.2979C39.0245 22.3007 39.0627 22.3021 39.1008 22.3021C40.0643 22.3021 40.8939 21.4208 40.9767 20.2793C41.0225 19.7375 40.8796 19.1966 40.5723 18.7481C40.2548 18.2991 39.8023 18.0316 39.2983 17.9951C38.2873 17.9218 37.3938 18.8273 37.3077 20.0138C37.2619 20.5556 37.4048 21.0966 37.7121 21.5451C38.0296 21.9937 38.482 22.2614 38.9861 22.2979ZM38.0558 20.0677C38.11 19.3204 38.6088 18.7407 39.1824 18.7407C39.2028 18.7407 39.2235 18.7414 39.2441 18.7429C39.5201 18.7629 39.7744 18.9184 39.9599 19.1808C40.1671 19.4875 40.262 19.8564 40.2286 20.2251C40.1724 20.9989 39.6399 21.5932 39.0403 21.5501C38.7643 21.5301 38.51 21.3746 38.3245 21.1122C38.1173 20.8054 38.0223 20.4364 38.0558 20.0677Z" fill="#00833D"/>
<path d="M42.4283 22.6056C42.4572 22.6077 42.4859 22.6087 42.5146 22.6087C43.2294 22.6087 43.8444 21.9635 43.905 21.1275C43.938 20.7328 43.8336 20.3389 43.6094 20.0125C43.503 19.8535 43.3621 19.7206 43.1972 19.6235C43.0323 19.5265 42.8477 19.4679 42.6571 19.452C41.9071 19.3977 41.2434 20.0607 41.1803 20.9302C41.1472 21.3248 41.2517 21.7188 41.4759 22.0453C41.5823 22.2043 41.7233 22.3372 41.8881 22.4342C42.053 22.5312 42.2377 22.5898 42.4283 22.6056ZM41.9283 20.9842C41.9596 20.5492 42.2504 20.1987 42.5711 20.1987C42.5816 20.1987 42.5921 20.199 42.6028 20.1998C42.6827 20.2087 42.7595 20.2353 42.8277 20.2778C42.8959 20.3203 42.9538 20.3775 42.997 20.4452C43.12 20.6303 43.1764 20.8517 43.1569 21.0731C43.1243 21.5225 42.8161 21.8818 42.4824 21.8575C42.4026 21.8487 42.3257 21.822 42.2575 21.7796C42.1893 21.7371 42.1314 21.6799 42.0882 21.6121C41.9653 21.427 41.9089 21.2056 41.9284 20.9842H41.9283Z" fill="#00833D"/>
<path d="M43.6089 23.474C43.6649 23.6359 43.7562 23.7833 43.8762 23.9056C43.9962 24.0278 44.1419 24.1218 44.3027 24.1809C44.4165 24.2206 44.5362 24.2408 44.6568 24.2407C45.1875 24.2407 45.7098 23.855 45.9186 23.2577C46.038 22.9279 46.0396 22.5669 45.9233 22.236C45.8673 22.0742 45.776 21.9268 45.6561 21.8046C45.5362 21.6823 45.3906 21.5883 45.2298 21.5292C44.5944 21.3072 43.8695 21.7214 43.6138 22.4523C43.4944 22.7821 43.4926 23.1431 43.6089 23.474ZM44.3214 22.7C44.4214 22.4148 44.6553 22.2187 44.8714 22.2187C44.9091 22.2187 44.9465 22.225 44.9821 22.2375C45.0378 22.2605 45.0879 22.2954 45.1288 22.3398C45.1696 22.3841 45.2003 22.4369 45.2187 22.4943C45.2744 22.6623 45.2715 22.8443 45.2103 23.0103C45.0932 23.3453 44.7905 23.5574 44.5495 23.4729C44.4938 23.4499 44.4437 23.4149 44.4028 23.3706C44.362 23.3262 44.3313 23.2734 44.313 23.216C44.2572 23.048 44.2602 22.8661 44.3215 22.7L44.3214 22.7Z" fill="#00833D"/>
<path d="M45.137 24.4321C44.909 24.6987 44.7802 25.0359 44.7724 25.3866C44.7677 25.5578 44.8012 25.7279 44.8704 25.8846C44.9396 26.0412 45.0427 26.1805 45.1724 26.2924C45.3751 26.4595 45.6305 26.5494 45.8932 26.5462C46.108 26.5413 46.3192 26.4898 46.5121 26.3951C46.7049 26.3004 46.8749 26.1648 47.0101 25.9978C47.238 25.7312 47.3668 25.394 47.3745 25.0433C47.3792 24.8721 47.3457 24.702 47.2765 24.5453C47.2074 24.3887 47.1042 24.2494 46.9745 24.1375C46.4583 23.7062 45.6339 23.8382 45.137 24.4321ZM45.712 24.9134C45.7769 24.8309 45.8585 24.7631 45.9515 24.7145C46.0445 24.666 46.1468 24.6377 46.2516 24.6317C46.3393 24.6292 46.4251 24.658 46.4936 24.7129C46.5377 24.7541 46.5723 24.8043 46.5949 24.8602C46.6175 24.9162 46.6276 24.9763 46.6245 25.0365C46.6175 25.2134 46.5506 25.3827 46.4347 25.5165C46.2068 25.7887 45.849 25.8806 45.6531 25.7169C45.609 25.6757 45.5745 25.6254 45.5519 25.5696C45.5293 25.5137 45.5192 25.4536 45.5223 25.3934C45.5294 25.2165 45.5963 25.0473 45.712 24.9134V24.9134Z" fill="#00833D"/>
<path d="M25.4497 28.8016C22.8145 29.0281 20.5762 30.8607 19.88 33.3617C19.8649 33.4159 19.8503 33.4708 19.8362 33.5266C19.0169 36.7469 21.9806 42.0731 25.1778 44.6839C26.5273 45.7859 27.841 46.3522 29.0014 46.3521C29.482 46.3558 29.9572 46.2497 30.3906 46.042C31.6213 45.4469 32.2194 44.6978 32.273 43.6845C32.3192 42.8125 31.9498 41.8764 31.5223 40.7925C30.8285 39.0343 30.0425 37.0415 30.6852 34.5949C31.1727 32.7387 30.9839 31.2798 30.1236 30.2579C29.6042 29.6411 28.858 29.2079 27.9057 28.9708C26.9673 28.7371 26.0522 28.75 25.4497 28.8016ZM29.5497 30.741C30.2438 31.5654 30.3817 32.7979 29.9597 34.4044C29.2545 37.0884 30.125 39.2949 30.8244 41.0678C31.7041 43.2975 32.0392 44.4115 30.0639 45.3668C29.7307 45.5263 29.3655 45.6076 28.9961 45.6043C27.7167 45.6043 26.4125 44.7239 25.652 44.1029C24.1216 42.8529 22.6674 40.9876 21.6622 38.9845C20.6328 36.9332 20.232 35.0113 20.5627 33.7115C20.5755 33.6615 20.5887 33.6119 20.6024 33.5628C21.2149 31.3618 23.1887 29.7486 25.5138 29.5488C25.6581 29.5363 25.8775 29.5227 26.1442 29.5227C27.1033 29.5228 28.6725 29.699 29.5501 30.741H29.5497Z" fill="#00833D"/>
<path d="M27.4658 28.0451C27.5284 28.0451 27.591 28.0419 27.6533 28.0355C28.2582 27.9739 28.7919 27.6271 29.1561 27.0592C29.503 26.5184 29.6548 25.8359 29.5834 25.1374C29.4328 23.6634 28.3221 22.5655 27.107 22.6889C26.5022 22.7507 25.9684 23.0974 25.6042 23.6653C25.2573 24.2062 25.1055 24.8887 25.1769 25.5871C25.3194 26.9851 26.3258 28.0452 27.4658 28.0451ZM26.2352 24.0701C26.4735 23.6985 26.8102 23.4729 27.1828 23.4349C27.2206 23.431 27.2586 23.4291 27.2966 23.4291C28.0552 23.4291 28.7335 24.2012 28.837 25.2134C28.8975 25.7151 28.7875 26.2226 28.5245 26.654C28.2862 27.0256 27.9495 27.2512 27.5767 27.2892C27.5389 27.2931 27.501 27.295 27.463 27.295C26.7045 27.295 26.026 26.523 25.9227 25.5107C25.8621 25.0091 25.9722 24.5017 26.2352 24.0703V24.0701Z" fill="#00833D"/>
<path d="M23.3863 28.5428C23.5777 28.5431 23.7676 28.5087 23.9468 28.4414C24.42 28.2635 24.7781 27.8789 24.955 27.3582C25.1225 26.8409 25.106 26.2815 24.9083 25.775C24.4891 24.6618 23.376 24.0466 22.427 24.4034C21.9539 24.5813 21.5958 24.9659 21.4188 25.4866C21.2513 26.0039 21.2679 26.5633 21.4656 27.0698C21.8038 27.9687 22.5946 28.5428 23.3863 28.5428ZM22.1287 25.728C22.2321 25.4239 22.4317 25.203 22.6908 25.1054C23.2533 24.8939 23.9329 25.3129 24.2063 26.0393C24.3429 26.3832 24.3566 26.7639 24.245 27.1167C24.1416 27.4209 23.942 27.6417 23.6829 27.7394C23.1204 27.9511 22.4408 27.5319 22.1673 26.8056C22.0307 26.4615 22.0171 26.0809 22.1287 25.728Z" fill="#00833D"/>
<path d="M20.3114 29.7882C20.4553 29.7884 20.598 29.7626 20.7327 29.712C20.911 29.6427 21.0714 29.5342 21.202 29.3944C21.3326 29.2546 21.43 29.0871 21.487 28.9045C21.6094 28.5278 21.5978 28.1204 21.4541 27.7513C21.1469 26.9355 20.3237 26.4875 19.6186 26.7524C19.4403 26.8216 19.2798 26.9302 19.1492 27.0699C19.0186 27.2097 18.9212 27.3772 18.8643 27.5598C18.7419 27.9365 18.7535 28.3439 18.8973 28.713C19.1446 29.3697 19.7263 29.7882 20.3114 29.7882ZM19.5743 27.8013C19.5965 27.7241 19.6358 27.6529 19.6891 27.5929C19.7424 27.5328 19.8085 27.4855 19.8826 27.4544C19.9337 27.4353 19.9878 27.4257 20.0423 27.4259C20.3197 27.4259 20.6195 27.6634 20.7521 28.0156C20.8337 28.2223 20.8425 28.4506 20.7771 28.663C20.7549 28.7402 20.7157 28.8114 20.6624 28.8714C20.609 28.9315 20.5429 28.9788 20.4689 29.0099C20.1564 29.1276 19.7581 28.8704 19.5993 28.4487C19.5178 28.242 19.509 28.0137 19.5743 27.8013Z" fill="#00833D"/>
<path d="M18.7347 31.9575C18.9668 31.9595 19.1936 31.8881 19.3827 31.7535C19.5201 31.6512 19.633 31.5198 19.7134 31.3685C19.7937 31.2173 19.8394 31.0501 19.8472 30.879C19.8649 30.5287 19.7609 30.1831 19.5529 29.9006C19.1004 29.2721 18.2877 29.0804 17.7414 29.4734C17.6039 29.5756 17.491 29.7071 17.4106 29.8583C17.3303 30.0095 17.2846 30.1767 17.2769 30.3478C17.2591 30.6981 17.3631 31.0438 17.5712 31.3262C17.8645 31.7336 18.3093 31.9575 18.7347 31.9575ZM18.0253 30.3955C18.0266 30.3353 18.041 30.276 18.0676 30.2219C18.0942 30.1678 18.1323 30.1202 18.1792 30.0823C18.2418 30.0387 18.3166 30.016 18.3929 30.0176C18.5809 30.0176 18.798 30.1358 18.9442 30.3389C19.05 30.4807 19.1045 30.6543 19.0987 30.8312C19.0974 30.8915 19.0829 30.9508 19.0564 31.0049C19.0298 31.059 18.9917 31.1067 18.9448 31.1445C18.7375 31.2935 18.3872 31.1758 18.1798 30.8879C18.074 30.746 18.0195 30.5724 18.0253 30.3955Z" fill="#00833D"/>
<path d="M17.3017 34.2633C17.5525 34.4324 17.8476 34.5239 18.1501 34.5262C18.5532 34.5262 18.9287 34.3536 19.1473 34.025C19.2399 33.881 19.2993 33.7181 19.3211 33.5483C19.343 33.3785 19.3268 33.2059 19.2737 33.0431C19.1668 32.7091 18.9477 32.4223 18.6536 32.2313C18.0084 31.8027 17.1804 31.9095 16.8076 32.4696C16.7151 32.6136 16.6558 32.7765 16.6339 32.9463C16.6121 33.1161 16.6283 33.2886 16.6814 33.4514C16.7883 33.7855 17.0075 34.0723 17.3017 34.2633ZM17.4321 32.8849C17.5734 32.6724 17.9427 32.6593 18.2383 32.8557C18.3874 32.9512 18.4997 33.0946 18.5566 33.2623C18.5767 33.3191 18.5841 33.3796 18.5783 33.4396C18.5725 33.4996 18.5537 33.5576 18.5231 33.6095C18.3817 33.822 18.0125 33.8352 17.7169 33.6387C17.5678 33.5432 17.4556 33.4 17.3986 33.2325C17.3785 33.1756 17.371 33.115 17.3768 33.055C17.3826 32.9949 17.4015 32.9369 17.4321 32.8849Z" fill="#00833D"/>
<path d="M21.4887 35.8967C21.5373 35.8884 21.5837 35.8706 21.6254 35.8443C21.667 35.818 21.7031 35.7838 21.7315 35.7436C21.76 35.7034 21.7802 35.658 21.7911 35.6099C21.802 35.5619 21.8033 35.5122 21.795 35.4636C21.7831 35.3943 21.7722 35.3254 21.7624 35.2567C21.7483 35.1582 21.6957 35.0694 21.6161 35.0097C21.5365 34.9501 21.4365 34.9245 21.338 34.9386C21.2396 34.9527 21.1507 35.0053 21.0911 35.0849C21.0314 35.1645 21.0058 35.2645 21.0199 35.3629C21.0307 35.4384 21.0427 35.5143 21.0558 35.5907C21.0641 35.6392 21.0819 35.6857 21.1082 35.7273C21.1344 35.769 21.1686 35.8051 21.2089 35.8335C21.2491 35.862 21.2945 35.8822 21.3425 35.8931C21.3906 35.904 21.4403 35.9053 21.4888 35.8969L21.4887 35.8967Z" fill="#00833D"/>
<path d="M22.0479 36.5279C22.0338 36.4807 22.0106 36.4368 21.9795 36.3985C21.9484 36.3603 21.9101 36.3286 21.8668 36.3052C21.8235 36.2818 21.776 36.2671 21.727 36.2621C21.678 36.257 21.6285 36.2616 21.5813 36.2757C21.5341 36.2898 21.4902 36.313 21.4519 36.3441C21.4137 36.3752 21.382 36.4134 21.3586 36.4568C21.3352 36.5001 21.3205 36.5476 21.3155 36.5966C21.3104 36.6456 21.315 36.6951 21.3291 36.7423C21.6694 37.8828 22.2336 39.1127 22.9609 40.2992C22.9864 40.3418 23.02 40.379 23.0599 40.4085C23.0998 40.438 23.1451 40.4593 23.1933 40.4712C23.2415 40.4831 23.2916 40.4853 23.3406 40.4777C23.3897 40.47 23.4367 40.4528 23.479 40.4268C23.5213 40.4009 23.5581 40.3668 23.5871 40.3266C23.6162 40.2863 23.6369 40.2407 23.6482 40.1924C23.6595 40.144 23.6611 40.0939 23.6528 40.045C23.6446 39.996 23.6268 39.9492 23.6003 39.9072C22.9064 38.7754 22.3698 37.6069 22.0479 36.5279Z" fill="#00833D"/>
</svg>
