<svg width="158" height="48" viewBox="0 0 158 48" fill="none" xmlns="http://www.w3.org/2000/svg">
<g filter="url(#filter0_d_1_58)">
<rect width="158" height="48" rx="4" fill="#2D2926"/>
</g>
<path d="M63.376 37L62.6514 34.6211H59.0078L58.2832 37H56L59.5273 26.9648H62.1182L65.6592 37H63.376ZM62.1455 32.8438C61.4756 30.6882 61.0973 29.4691 61.0107 29.1865C60.9287 28.904 60.8695 28.6807 60.833 28.5166C60.6826 29.0999 60.252 30.5423 59.541 32.8438H62.1455ZM70.293 31.709H70.9902C71.6419 31.709 72.1296 31.5814 72.4531 31.3262C72.7767 31.0664 72.9385 30.6904 72.9385 30.1982C72.9385 29.7015 72.8018 29.3346 72.5283 29.0977C72.2594 28.8607 71.8356 28.7422 71.2568 28.7422H70.293V31.709ZM75.0781 30.123C75.0781 31.1986 74.7409 32.0212 74.0664 32.5908C73.3965 33.1605 72.4417 33.4453 71.2021 33.4453H70.293V37H68.1738V27.0059H71.3662C72.5785 27.0059 73.499 27.2679 74.1279 27.792C74.7614 28.3115 75.0781 29.0885 75.0781 30.123ZM80.334 31.709H81.0312C81.6829 31.709 82.1706 31.5814 82.4941 31.3262C82.8177 31.0664 82.9795 30.6904 82.9795 30.1982C82.9795 29.7015 82.8428 29.3346 82.5693 29.0977C82.3005 28.8607 81.8766 28.7422 81.2979 28.7422H80.334V31.709ZM85.1191 30.123C85.1191 31.1986 84.7819 32.0212 84.1074 32.5908C83.4375 33.1605 82.4827 33.4453 81.2432 33.4453H80.334V37H78.2148V27.0059H81.4072C82.6195 27.0059 83.54 27.2679 84.1689 27.792C84.8024 28.3115 85.1191 29.0885 85.1191 30.123ZM99.042 34.2246C99.042 35.127 98.7161 35.8379 98.0645 36.3574C97.4173 36.877 96.515 37.1367 95.3574 37.1367C94.291 37.1367 93.3477 36.9362 92.5273 36.5352V34.5664C93.2018 34.8672 93.7715 35.0791 94.2363 35.2021C94.7057 35.3252 95.1341 35.3867 95.5215 35.3867C95.9863 35.3867 96.3418 35.2979 96.5879 35.1201C96.8385 34.9424 96.9639 34.6781 96.9639 34.3271C96.9639 34.1312 96.9092 33.958 96.7998 33.8076C96.6904 33.6527 96.5286 33.5046 96.3145 33.3633C96.1048 33.222 95.6742 32.9964 95.0225 32.6865C94.4118 32.3994 93.9538 32.1237 93.6484 31.8594C93.3431 31.5951 93.0993 31.2874 92.917 30.9365C92.7347 30.5856 92.6436 30.1755 92.6436 29.7061C92.6436 28.8219 92.9421 28.127 93.5391 27.6211C94.1406 27.1152 94.9701 26.8623 96.0273 26.8623C96.5469 26.8623 97.0413 26.9238 97.5107 27.0469C97.9847 27.1699 98.4792 27.3431 98.9941 27.5664L98.3105 29.2139C97.7773 28.9951 97.3353 28.8424 96.9844 28.7559C96.638 28.6693 96.2962 28.626 95.959 28.626C95.5579 28.626 95.2503 28.7194 95.0361 28.9062C94.8219 29.0931 94.7148 29.3369 94.7148 29.6377C94.7148 29.8245 94.7581 29.9886 94.8447 30.1299C94.9313 30.2666 95.068 30.401 95.2549 30.5332C95.4463 30.6608 95.8952 30.8932 96.6016 31.2305C97.5358 31.6771 98.1761 32.126 98.5225 32.5771C98.8688 33.0238 99.042 33.5729 99.042 34.2246ZM105.959 37H103.84V28.7695H101.126V27.0059H108.673V28.7695H105.959V37ZM120.532 31.9893C120.532 33.6436 120.122 34.915 119.302 35.8037C118.481 36.6924 117.306 37.1367 115.774 37.1367C114.243 37.1367 113.067 36.6924 112.247 35.8037C111.427 34.915 111.017 33.639 111.017 31.9756C111.017 30.3122 111.427 29.043 112.247 28.168C113.072 27.2884 114.252 26.8486 115.788 26.8486C117.324 26.8486 118.497 27.2907 119.309 28.1748C120.124 29.0589 120.532 30.3304 120.532 31.9893ZM113.238 31.9893C113.238 33.1058 113.45 33.9466 113.874 34.5117C114.298 35.0768 114.931 35.3594 115.774 35.3594C117.465 35.3594 118.311 34.236 118.311 31.9893C118.311 29.738 117.47 28.6123 115.788 28.6123C114.945 28.6123 114.309 28.8971 113.881 29.4668C113.452 30.0319 113.238 30.8727 113.238 31.9893ZM125.973 31.4424H126.656C127.326 31.4424 127.821 31.3307 128.14 31.1074C128.459 30.8841 128.618 30.5332 128.618 30.0547C128.618 29.5807 128.454 29.2435 128.126 29.043C127.802 28.8424 127.299 28.7422 126.615 28.7422H125.973V31.4424ZM125.973 33.165V37H123.854V27.0059H126.766C128.124 27.0059 129.129 27.2542 129.78 27.751C130.432 28.2432 130.758 28.9928 130.758 30C130.758 30.5879 130.596 31.112 130.272 31.5723C129.949 32.028 129.491 32.3857 128.898 32.6455C130.402 34.8923 131.382 36.3438 131.838 37H129.486L127.101 33.165H125.973ZM140.102 37H134.346V27.0059H140.102V28.7422H136.465V30.9365H139.849V32.6729H136.465V35.25H140.102V37Z" fill="white"/>
<path d="M61.1221 12.5312C61.1221 13 60.9723 13.3809 60.6729 13.6738C60.3766 13.9668 59.9665 14.1523 59.4424 14.2305V14.2695C60.0381 14.3509 60.4889 14.5381 60.7949 14.8311C61.1042 15.124 61.2588 15.5065 61.2588 15.9785C61.2588 16.6458 61.0098 17.1667 60.5117 17.541C60.0137 17.9121 59.3105 18.0977 58.4023 18.0977C57.5723 18.0977 56.8919 17.9691 56.3613 17.7119V16.9404C56.6738 17.0902 57.0107 17.2057 57.3721 17.2871C57.7367 17.3685 58.0866 17.4092 58.4219 17.4092C59.0664 17.4092 59.5531 17.2871 59.8818 17.043C60.2139 16.7988 60.3799 16.4473 60.3799 15.9883C60.3799 15.5521 60.196 15.2217 59.8281 14.9971C59.4635 14.7725 58.9183 14.6602 58.1924 14.6602H57.1279V13.9619H58.1484C58.8158 13.9619 59.3317 13.8431 59.6963 13.6055C60.0641 13.3646 60.248 13.0293 60.248 12.5996C60.248 12.2513 60.1162 11.973 59.8525 11.7646C59.5889 11.5563 59.234 11.4521 58.7881 11.4521C58.43 11.4521 58.1061 11.4928 57.8164 11.5742C57.5267 11.6556 57.1914 11.8167 56.8105 12.0576L56.4004 11.501C56.7292 11.2568 57.097 11.0729 57.5039 10.9492C57.9141 10.8223 58.3389 10.7588 58.7783 10.7588C59.5107 10.7588 60.0837 10.9199 60.4971 11.2422C60.9137 11.5612 61.1221 11.9909 61.1221 12.5312ZM66.3609 18L66.1998 17.2383H66.1607C65.8938 17.5736 65.6269 17.8014 65.36 17.9219C65.0963 18.0391 64.7659 18.0977 64.3688 18.0977C63.8382 18.0977 63.4215 17.9609 63.1188 17.6875C62.8193 17.4141 62.6695 17.0251 62.6695 16.5205C62.6695 15.4398 63.5338 14.8734 65.2623 14.8213L66.1705 14.792V14.46C66.1705 14.04 66.0794 13.7308 65.8971 13.5322C65.718 13.3304 65.4299 13.2295 65.0328 13.2295C64.5868 13.2295 64.0823 13.3662 63.5191 13.6396L63.2701 13.0195C63.5338 12.8763 63.8219 12.764 64.1344 12.6826C64.4501 12.6012 64.7659 12.5605 65.0816 12.5605C65.7197 12.5605 66.1917 12.7021 66.4977 12.9854C66.8069 13.2686 66.9615 13.7227 66.9615 14.3477V18H66.3609ZM64.5299 17.4287C65.0344 17.4287 65.4299 17.2904 65.7164 17.0137C66.0061 16.737 66.151 16.3496 66.151 15.8516V15.3682L65.3404 15.4023C64.6959 15.4251 64.2304 15.526 63.9439 15.7051C63.6607 15.8809 63.5191 16.1559 63.5191 16.5303C63.5191 16.8232 63.607 17.0462 63.7828 17.1992C63.9618 17.3522 64.2109 17.4287 64.5299 17.4287ZM73.3771 13.9912C73.3771 14.3395 73.2762 14.6048 73.0744 14.7871C72.8758 14.9661 72.5959 15.0866 72.2346 15.1484V15.1924C72.6903 15.2542 73.0223 15.3877 73.2307 15.5928C73.4423 15.7979 73.548 16.0811 73.548 16.4424C73.548 16.9404 73.3641 17.3245 72.9963 17.5947C72.6317 17.8649 72.0979 18 71.3947 18H69.0363V12.6484H71.385C72.7131 12.6484 73.3771 13.096 73.3771 13.9912ZM72.7375 16.3887C72.7375 16.099 72.6268 15.889 72.4055 15.7588C72.1874 15.6253 71.8244 15.5586 71.3166 15.5586H69.8469V17.3213H71.3361C72.2704 17.3213 72.7375 17.0104 72.7375 16.3887ZM72.5861 14.0693C72.5861 13.8089 72.4852 13.625 72.2834 13.5176C72.0848 13.4069 71.7821 13.3516 71.3752 13.3516H69.8469V14.8604H71.2189C71.7202 14.8604 72.0734 14.7985 72.2785 14.6748C72.4836 14.5511 72.5861 14.3493 72.5861 14.0693ZM78.4207 18L78.2596 17.2383H78.2205C77.9536 17.5736 77.6867 17.8014 77.4197 17.9219C77.1561 18.0391 76.8257 18.0977 76.4285 18.0977C75.8979 18.0977 75.4813 17.9609 75.1785 17.6875C74.879 17.4141 74.7293 17.0251 74.7293 16.5205C74.7293 15.4398 75.5936 14.8734 77.3221 14.8213L78.2303 14.792V14.46C78.2303 14.04 78.1391 13.7308 77.9568 13.5322C77.7778 13.3304 77.4897 13.2295 77.0926 13.2295C76.6466 13.2295 76.1421 13.3662 75.5789 13.6396L75.3299 13.0195C75.5936 12.8763 75.8816 12.764 76.1941 12.6826C76.5099 12.6012 76.8257 12.5605 77.1414 12.5605C77.7794 12.5605 78.2514 12.7021 78.5574 12.9854C78.8667 13.2686 79.0213 13.7227 79.0213 14.3477V18H78.4207ZM76.5896 17.4287C77.0942 17.4287 77.4897 17.2904 77.7762 17.0137C78.0659 16.737 78.2107 16.3496 78.2107 15.8516V15.3682L77.4002 15.4023C76.7557 15.4251 76.2902 15.526 76.0037 15.7051C75.7205 15.8809 75.5789 16.1559 75.5789 16.5303C75.5789 16.8232 75.6668 17.0462 75.8426 17.1992C76.0216 17.3522 76.2706 17.4287 76.5896 17.4287ZM81.9066 12.6484V14.8896H84.9047V12.6484H85.7152V18H84.9047V15.5879H81.9066V18H81.0961V12.6484H81.9066ZM91.4424 13.3418H89.7041V18H88.8936V13.3418H87.1748V12.6484H91.4424V13.3418ZM96.193 18L96.0318 17.2383H95.9928C95.7258 17.5736 95.4589 17.8014 95.192 17.9219C94.9283 18.0391 94.5979 18.0977 94.2008 18.0977C93.6702 18.0977 93.2535 17.9609 92.9508 17.6875C92.6513 17.4141 92.5016 17.0251 92.5016 16.5205C92.5016 15.4398 93.3658 14.8734 95.0943 14.8213L96.0025 14.792V14.46C96.0025 14.04 95.9114 13.7308 95.7291 13.5322C95.5501 13.3304 95.262 13.2295 94.8648 13.2295C94.4189 13.2295 93.9143 13.3662 93.3512 13.6396L93.1021 13.0195C93.3658 12.8763 93.6539 12.764 93.9664 12.6826C94.2822 12.6012 94.5979 12.5605 94.9137 12.5605C95.5517 12.5605 96.0237 12.7021 96.3297 12.9854C96.6389 13.2686 96.7936 13.7227 96.7936 14.3477V18H96.193ZM94.3619 17.4287C94.8665 17.4287 95.262 17.2904 95.5484 17.0137C95.8382 16.737 95.983 16.3496 95.983 15.8516V15.3682L95.1725 15.4023C94.5279 15.4251 94.0624 15.526 93.776 15.7051C93.4928 15.8809 93.3512 16.1559 93.3512 16.5303C93.3512 16.8232 93.4391 17.0462 93.6148 17.1992C93.7939 17.3522 94.0429 17.4287 94.3619 17.4287ZM101.31 12.6582H102.057V15.251L104.269 12.6582H105.157L102.921 15.251L105.348 18H104.41L102.057 15.29V18H101.31V15.29L98.9611 18H98.0285L100.45 15.251L98.2189 12.6582H99.1076L101.31 15.251V12.6582ZM107.393 12.6484V16.042L107.359 16.9307L107.345 17.209L110.24 12.6484H111.251V18H110.494V14.7285L110.509 14.084L110.533 13.4492L107.642 18H106.632V12.6484H107.393ZM116.978 13.3418H115.24V18H114.429V13.3418H112.71V12.6484H116.978V13.3418ZM119.199 12.6484V16.042L119.165 16.9307L119.15 17.209L122.046 12.6484H123.057V18H122.3V14.7285L122.314 14.084L122.339 13.4492L119.448 18H118.438V12.6484H119.199ZM128.984 12.6484V14.8896H131.982V12.6484H132.792V18H131.982V15.5879H128.984V18H128.173V12.6484H128.984ZM138.202 18L138.041 17.2383H138.002C137.735 17.5736 137.468 17.8014 137.201 17.9219C136.937 18.0391 136.607 18.0977 136.21 18.0977C135.679 18.0977 135.262 17.9609 134.96 17.6875C134.66 17.4141 134.511 17.0251 134.511 16.5205C134.511 15.4398 135.375 14.8734 137.103 14.8213L138.012 14.792V14.46C138.012 14.04 137.92 13.7308 137.738 13.5322C137.559 13.3304 137.271 13.2295 136.874 13.2295C136.428 13.2295 135.923 13.3662 135.36 13.6396L135.111 13.0195C135.375 12.8763 135.663 12.764 135.975 12.6826C136.291 12.6012 136.607 12.5605 136.923 12.5605C137.561 12.5605 138.033 12.7021 138.339 12.9854C138.648 13.2686 138.803 13.7227 138.803 14.3477V18H138.202ZM136.371 17.4287C136.875 17.4287 137.271 17.2904 137.557 17.0137C137.847 16.737 137.992 16.3496 137.992 15.8516V15.3682L137.181 15.4023C136.537 15.4251 136.071 15.526 135.785 15.7051C135.502 15.8809 135.36 16.1559 135.36 16.5303C135.36 16.8232 135.448 17.0462 135.624 17.1992C135.803 17.3522 136.052 17.4287 136.371 17.4287Z" fill="white"/>
<path d="M40.0547 34.75C39.2578 35.9219 38.6016 36.7656 38.0859 37.2812C37.2422 38.0312 36.375 38.4297 35.4844 38.4766C34.8281 38.4766 34.0312 38.2656 33.0938 37.8438C32.1562 37.4688 31.3125 37.2812 30.5625 37.2812C30 37.2812 29.4844 37.3516 29.0156 37.4922C28.7344 37.5859 28.3359 37.7266 27.8203 37.9141C26.9766 38.2891 26.25 38.4766 25.6406 38.4766C24.7969 38.5234 23.9297 38.125 23.0391 37.2812C22.4766 36.7656 21.7734 35.8984 20.9297 34.6797C20.0391 33.3672 19.3125 31.8672 18.75 30.1797C18.0938 28.3047 17.7656 26.4766 17.7656 24.6953C17.8125 22.7266 18.2344 21.0156 19.0312 19.5625C19.6875 18.4375 20.5547 17.5469 21.6328 16.8906C22.7578 16.1875 23.9531 15.8359 25.2188 15.8359C25.9688 15.8359 27 16.0938 28.3125 16.6094C29.2031 16.9375 29.8125 17.1016 30.1406 17.1016C30.4688 17.1016 31.0547 16.9375 31.8984 16.6094C32.7422 16.2812 33.375 16.0703 33.7969 15.9766C34.5469 15.7891 35.25 15.7187 35.9062 15.7656C36.75 15.8125 37.5469 16 38.2969 16.3281C39.5625 16.7969 40.5703 17.5938 41.3203 18.7188C40.6641 19.1406 40.0781 19.6562 39.5625 20.2656C38.5781 21.5312 38.0859 22.9141 38.0859 24.4141C38.1328 25.7734 38.4844 26.9688 39.1406 28C39.6562 28.75 40.3125 29.4062 41.1094 29.9688C41.5312 30.25 41.8828 30.4375 42.1641 30.5312L42.0938 30.6016C41.5781 32.1016 40.8984 33.4844 40.0547 34.75ZM31.4766 10.7734C32.0391 10.1172 32.7188 9.57812 33.5156 9.15625C34.3594 8.73438 35.1562 8.52344 35.9062 8.52344C36 9.36719 35.9062 10.2109 35.625 11.0547C35.3438 11.8984 34.9219 12.6484 34.3594 13.3047C33.7969 13.9609 33.1172 14.5 32.3203 14.9219C31.5234 15.2969 30.7266 15.4609 29.9297 15.4141C29.8359 14.6172 29.9531 13.7734 30.2812 12.8828C30.5625 12.0859 30.9609 11.3828 31.4766 10.7734Z" fill="white"/>
<defs>
<filter id="filter0_d_1_58" x="-16" y="-8" width="190" height="80" filterUnits="userSpaceOnUse" color-interpolation-filters="sRGB">
<feFlood flood-opacity="0" result="BackgroundImageFix"/>
<feColorMatrix in="SourceAlpha" type="matrix" values="0 0 0 0 0 0 0 0 0 0 0 0 0 0 0 0 0 0 127 0" result="hardAlpha"/>
<feOffset dy="8"/>
<feGaussianBlur stdDeviation="8"/>
<feColorMatrix type="matrix" values="0 0 0 0 0 0 0 0 0 0 0 0 0 0 0 0 0 0 0.08 0"/>
<feBlend mode="normal" in2="BackgroundImageFix" result="effect1_dropShadow_1_58"/>
<feBlend mode="normal" in="SourceGraphic" in2="effect1_dropShadow_1_58" result="shape"/>
</filter>
</defs>
</svg>
