<svg width="64" height="64" viewBox="0 0 64 64" fill="none" xmlns="http://www.w3.org/2000/svg">
<circle opacity="0.2" cx="32" cy="32" r="32" fill="#1CABE2"/>
<g clip-path="url(#clip0_1_128)">
<path d="M44.2481 27.1438C44.507 27.1438 44.7168 26.934 44.7168 26.675V22.1467C44.7168 21.2209 43.9951 20.4587 43.0737 20.4116C37.5144 20.1286 34.5265 17.855 33.2403 16.525C32.9129 16.1864 32.4724 16 32 16C31.5276 16 31.0872 16.1864 30.7599 16.525C29.4736 17.855 26.4857 20.1285 20.9262 20.4116C20.0049 20.4587 19.2832 21.2208 19.2832 22.1467V35.2161C19.2832 38.9801 21.3084 42.4876 24.5685 44.37L29.8718 47.4313C30.5283 47.8105 31.2641 48.0001 32.0001 48.0001C32.7359 48.0001 33.472 47.8105 34.1282 47.4314L39.4317 44.37C42.6917 42.4877 44.7169 38.9802 44.7169 35.2162V28.8628C44.7169 28.6038 44.507 28.394 44.2481 28.394C43.9893 28.394 43.7794 28.6038 43.7794 28.8628V35.2162C43.7794 38.6463 41.9338 41.8427 38.9629 43.5581L33.6594 46.6195C32.6359 47.2107 31.3642 47.2107 30.3406 46.6194L25.0372 43.5581C22.0663 41.8427 20.2207 38.6463 20.2207 35.2162V22.1467C20.2207 21.7204 20.5516 21.3696 20.974 21.348C26.8545 21.0485 30.0515 18.6061 31.4339 17.1767C31.5829 17.0225 31.784 16.9376 32 16.9376C32.216 16.9376 32.4171 17.0225 32.5662 17.1768C33.9485 18.6061 37.1454 21.0485 43.026 21.348C43.4484 21.3696 43.7793 21.7204 43.7793 22.1467V26.675C43.7793 26.934 43.9892 27.1438 44.2481 27.1438Z" fill="#1CABE2"/>
<path d="M22.2779 28.3938C22.019 28.3938 21.8091 28.6036 21.8091 28.8625V35.2159C21.8091 38.0803 23.3502 40.7499 25.8311 42.1828L31.1347 45.2443C31.398 45.3961 31.6972 45.4763 32.0002 45.4763C32.3031 45.4763 32.6024 45.3961 32.8658 45.2441L38.1693 42.1828C40.6502 40.7499 42.1913 38.0803 42.1913 35.2159V23.8742C42.1913 23.3208 41.7784 22.8518 41.231 22.7834C37.0265 22.2546 34.2606 20.6572 32.6801 19.4099C32.2798 19.095 31.7206 19.095 31.3198 19.4104C29.7398 20.6572 26.9739 22.2546 22.7698 22.7833C22.2222 22.8518 21.8091 23.3208 21.8091 23.8742V26.6749C21.8091 26.9339 22.019 27.1437 22.2779 27.1437C22.5368 27.1437 22.7467 26.9339 22.7467 26.6749V23.8742C22.7467 23.7926 22.8066 23.7236 22.8864 23.7136C27.3049 23.1578 30.2271 21.467 31.9 20.1468C31.9589 20.1004 32.0413 20.1003 32.0999 20.1464C33.7732 21.467 36.6955 23.1579 41.1144 23.7137C41.1938 23.7236 41.2538 23.7926 41.2538 23.8742V35.2159C41.2538 37.7466 39.8922 40.105 37.7005 41.3709L32.3974 44.4322C32.1553 44.5718 31.845 44.5717 31.6033 44.4323L26.3 41.371C24.1083 40.105 22.7467 37.7466 22.7467 35.2159V28.8625C22.7466 28.6036 22.5368 28.3938 22.2779 28.3938Z" fill="#1CABE2"/>
<path d="M26.3179 30.9001C26.6986 30.9001 27.0565 31.0483 27.3256 31.3174L29.7751 33.7663C29.9582 33.9494 30.2549 33.9493 30.438 33.7663L33.1212 31.083C33.3043 30.8999 33.3043 30.6031 33.1212 30.4201C32.9382 30.2371 32.6413 30.2371 32.4583 30.4201L30.1065 32.7719L27.9886 30.6545C27.5424 30.2083 26.9492 29.9626 26.318 29.9626C25.6868 29.9626 25.0936 30.2084 24.6474 30.6545C24.201 31.101 23.9551 31.6944 23.9551 32.3256C23.9551 32.9569 24.201 33.5503 24.6474 33.9963L28.4354 37.7843C28.8813 38.2309 29.4748 38.4769 30.1066 38.4769C30.738 38.4769 31.3313 38.2309 31.7769 37.7846L39.3533 30.2081C39.7999 29.7619 40.0458 29.1685 40.0458 28.5373C40.0458 27.9061 39.7999 27.3126 39.3535 26.8662C38.9073 26.42 38.314 26.1744 37.6829 26.1744C37.0517 26.1744 36.4585 26.4201 36.0123 26.8662L34.0053 28.8731C33.8223 29.0562 33.8223 29.353 34.0053 29.536C34.1884 29.719 34.4852 29.719 34.6682 29.536L36.6752 27.5291C36.9443 27.26 37.3021 27.1119 37.6829 27.1119C38.0636 27.1119 38.4214 27.26 38.6906 27.5291C38.9599 27.7985 39.1083 28.1565 39.1083 28.5373C39.1083 28.918 38.96 29.2758 38.6906 29.545L31.1136 37.122C30.8449 37.3912 30.4872 37.5394 30.1066 37.5394C29.7255 37.5394 29.3676 37.3911 29.0986 37.1216L25.3102 33.3332C25.0409 33.0641 24.8926 32.7063 24.8926 32.3256C24.8926 31.9448 25.041 31.5868 25.3104 31.3174C25.5794 31.0483 25.9372 30.9001 26.3179 30.9001Z" fill="#1CABE2"/>
</g>
<defs>
<clipPath id="clip0_1_128">
<rect width="32" height="32" fill="white" transform="translate(16 16)"/>
</clipPath>
</defs>
</svg>
