<svg width="64" height="64" viewBox="0 0 64 64" fill="none" xmlns="http://www.w3.org/2000/svg">
<circle opacity="0.2" cx="32" cy="32" r="32" fill="#1CABE2"/>
<g clip-path="url(#clip0_1_78)">
<path d="M31.9176 38.3439L31.9176 38.3439C31.4626 37.9459 31.0345 37.5811 30.623 37.2305C29.4298 36.2139 28.4886 35.4097 27.8377 34.6145C27.201 33.8365 26.875 33.1053 26.875 32.24C26.875 30.6242 28.0045 29.375 29.5 29.375C30.5182 29.375 31.1712 29.946 31.588 30.5518L31.9999 31.1505L32.4118 30.5519C32.8287 29.946 33.4817 29.375 34.4999 29.375C35.9951 29.375 37.1249 30.6241 37.1249 32.24C37.1249 33.1053 36.7989 33.8365 36.1621 34.6145C35.5112 35.4097 34.5701 36.2139 33.3769 37.2305C32.9654 37.5811 32.5372 37.9459 32.0822 38.3439L32.0821 38.344C32.0586 38.3647 32.0299 38.3749 31.9999 38.3749C31.9701 38.3749 31.9413 38.3647 31.9176 38.3439ZM32.1206 31.7201L32.1205 31.7205C32.1056 31.7748 32.0562 31.8125 31.9999 31.8125C31.9437 31.8125 31.8945 31.775 31.8795 31.721L31.8795 31.721L31.8787 31.7183C31.8614 31.657 31.7155 31.1623 31.3701 30.6725C31.0236 30.1811 30.4223 29.625 29.5 29.625C28.1 29.625 27.125 30.8164 27.125 32.24C27.125 33.1353 27.5363 33.8903 28.1744 34.627C28.7989 35.348 29.6938 36.1105 30.7566 37.016L30.7851 37.0402L30.7851 37.0403C31.0735 37.286 31.3675 37.5365 31.6732 37.8004L31.9999 38.0825L32.3267 37.8004C32.6279 37.5403 32.9177 37.2934 33.2021 37.051L33.2147 37.0402L33.2148 37.0402L33.2432 37.016C34.306 36.1105 35.201 35.348 35.8254 34.627C36.4635 33.8903 36.8749 33.1353 36.8749 32.24C36.8749 30.8164 35.8999 29.625 34.4999 29.625C33.5639 29.625 32.9584 30.2013 32.6145 30.6977C32.2707 31.1937 32.1298 31.6869 32.1206 31.7201Z" fill="black" stroke="#1CABE2" stroke-width="0.999988"/>
<path d="M24.0005 22.3752C24.0005 22.4442 23.9445 22.5002 23.8755 22.5002C23.8064 22.5002 23.7505 22.4442 23.7505 22.3752C23.7505 22.3061 23.8064 22.2502 23.8755 22.2502C23.9445 22.2502 24.0005 22.3061 24.0005 22.3752Z" fill="black" stroke="#1CABE2" stroke-width="0.999988"/>
<mask id="path-4-inside-1_1_78" fill="white">
<path d="M43.9863 30.8646C44.4245 31.1985 44.9479 31.3749 45.5 31.3749C46.8785 31.3749 48 30.2535 48 28.875C48 28.0875 47.6404 27.3623 47.0159 26.8869L43.875 24.4731V16.6251C43.875 16.28 43.5952 16.0001 43.25 16.0001H39.5001C39.1549 16.0001 38.8751 16.28 38.8751 16.6251V20.6306L33.5139 16.5105C33.0756 16.1766 32.5522 16.0001 32.0002 16.0001C31.4481 16.0001 30.9247 16.1766 30.4843 16.5121L25.7257 20.1692C25.452 20.3795 25.4006 20.7719 25.611 21.0456C25.8213 21.3192 26.2137 21.3706 26.4874 21.1602L31.2439 17.5047C31.4626 17.3382 31.7241 17.2501 32.0002 17.2501C32.2762 17.2501 32.5377 17.3382 32.7543 17.5032L46.2565 27.8798C46.5701 28.1185 46.75 28.4812 46.75 28.875C46.75 29.5642 46.1892 30.125 45.5 30.125C45.2239 30.125 44.9624 30.0369 44.746 29.872C44.0459 29.3336 32.946 20.7965 32.3812 20.3621C32.1645 20.1954 31.8647 20.1889 31.6409 20.3461C31.6126 20.3659 19.2563 29.8705 19.2563 29.8705C19.0058 30.0616 18.6925 30.1496 18.373 30.1185C17.7541 30.0586 17.4184 29.7675 17.2843 29.1745C17.1719 28.6777 17.3481 28.1815 17.7461 27.878L22.0292 24.5865C22.3028 24.3762 22.3542 23.9838 22.1438 23.7102C21.9335 23.4365 21.541 23.3851 21.2674 23.5955L16.9865 26.8854C16.1965 27.4877 15.8435 28.4705 16.0652 29.4503C16.3187 30.5715 17.0956 31.2506 18.2521 31.3626C18.8861 31.4246 19.5119 31.2476 20.0144 30.8644L20.0134 30.8632C20.04 30.8436 20.0762 30.8163 20.1254 30.7788V43.0651H43.8751V30.779L43.9863 30.8646ZM40.1251 17.2501H42.625V23.5125L40.1251 21.5912V17.2501ZM21.3753 41.8802V29.8178C22.2825 29.12 30.9562 22.4487 32.0001 21.646L42.625 29.8177V41.8718L21.3753 41.8802Z"/>
</mask>
<path d="M43.9863 30.8646C44.4245 31.1985 44.9479 31.3749 45.5 31.3749C46.8785 31.3749 48 30.2535 48 28.875C48 28.0875 47.6404 27.3623 47.0159 26.8869L43.875 24.4731V16.6251C43.875 16.28 43.5952 16.0001 43.25 16.0001H39.5001C39.1549 16.0001 38.8751 16.28 38.8751 16.6251V20.6306L33.5139 16.5105C33.0756 16.1766 32.5522 16.0001 32.0002 16.0001C31.4481 16.0001 30.9247 16.1766 30.4843 16.5121L25.7257 20.1692C25.452 20.3795 25.4006 20.7719 25.611 21.0456C25.8213 21.3192 26.2137 21.3706 26.4874 21.1602L31.2439 17.5047C31.4626 17.3382 31.7241 17.2501 32.0002 17.2501C32.2762 17.2501 32.5377 17.3382 32.7543 17.5032L46.2565 27.8798C46.5701 28.1185 46.75 28.4812 46.75 28.875C46.75 29.5642 46.1892 30.125 45.5 30.125C45.2239 30.125 44.9624 30.0369 44.746 29.872C44.0459 29.3336 32.946 20.7965 32.3812 20.3621C32.1645 20.1954 31.8647 20.1889 31.6409 20.3461C31.6126 20.3659 19.2563 29.8705 19.2563 29.8705C19.0058 30.0616 18.6925 30.1496 18.373 30.1185C17.7541 30.0586 17.4184 29.7675 17.2843 29.1745C17.1719 28.6777 17.3481 28.1815 17.7461 27.878L22.0292 24.5865C22.3028 24.3762 22.3542 23.9838 22.1438 23.7102C21.9335 23.4365 21.541 23.3851 21.2674 23.5955L16.9865 26.8854C16.1965 27.4877 15.8435 28.4705 16.0652 29.4503C16.3187 30.5715 17.0956 31.2506 18.2521 31.3626C18.8861 31.4246 19.5119 31.2476 20.0144 30.8644L20.0134 30.8632C20.04 30.8436 20.0762 30.8163 20.1254 30.7788V43.0651H43.8751V30.779L43.9863 30.8646ZM40.1251 17.2501H42.625V23.5125L40.1251 21.5912V17.2501ZM21.3753 41.8802V29.8178C22.2825 29.12 30.9562 22.4487 32.0001 21.646L42.625 29.8177V41.8718L21.3753 41.8802Z" fill="black"/>
<path d="M20.4694 43.4279L21.7193 42.243L21.0313 41.5173L19.7814 42.7022L20.4694 43.4279ZM42.2798 42.2335L43.5298 43.4268L44.2203 42.7034L42.9703 41.5102L42.2798 42.2335ZM43.9863 30.8646L43.3764 31.6571L43.3802 31.66L43.9863 30.8646ZM47.0159 26.8869L46.4065 27.6798L46.4102 27.6827L47.0159 26.8869ZM43.875 24.4731H42.875V24.9658L43.2657 25.266L43.875 24.4731ZM38.8751 20.6306L38.2657 21.4235L39.8751 22.6603V20.6306H38.8751ZM33.5139 16.5105L34.1233 15.7176L34.12 15.7151L33.5139 16.5105ZM30.4843 16.5121L29.8783 15.7166L29.8749 15.7192L30.4843 16.5121ZM25.7257 20.1692L26.335 20.9621L26.335 20.9621L25.7257 20.1692ZM25.611 21.0456L26.4038 20.4362L26.4038 20.436L25.611 21.0456ZM26.4874 21.1602L25.8781 20.3674L25.878 20.3674L26.4874 21.1602ZM31.2439 17.5047L30.638 16.7092L30.6346 16.7118L31.2439 17.5047ZM32.7543 17.5032L33.3637 16.7103L33.3603 16.7077L32.7543 17.5032ZM46.2565 27.8798L45.6471 28.6727L45.6509 28.6755L46.2565 27.8798ZM44.746 29.872L44.1364 30.6647L44.14 30.6675L44.746 29.872ZM32.3812 20.3621L31.7715 21.1547L31.7716 21.1548L32.3812 20.3621ZM31.6409 20.3461L32.2143 21.1655L32.2158 21.1644L31.6409 20.3461ZM19.2563 29.8705L19.8628 30.6656L19.866 30.6632L19.2563 29.8705ZM18.373 30.1185L18.4698 29.1232L18.4694 29.1232L18.373 30.1185ZM17.2843 29.1745L18.2596 28.9539L18.2596 28.9539L17.2843 29.1745ZM17.7461 27.878L18.3524 28.6733L18.3555 28.6709L17.7461 27.878ZM22.0292 24.5865L21.4198 23.7936L21.4198 23.7936L22.0292 24.5865ZM21.2674 23.5955L21.8768 24.3884L21.8769 24.3882L21.2674 23.5955ZM16.9865 26.8854L17.5927 27.6807L17.5958 27.6783L16.9865 26.8854ZM16.0652 29.4503L17.0405 29.2297L17.0405 29.2297L16.0652 29.4503ZM18.2521 31.3626L18.3495 30.3673L18.3484 30.3672L18.2521 31.3626ZM20.0144 30.8644L20.6208 31.6595L21.4297 31.0426L20.799 30.2444L20.0144 30.8644ZM20.0134 30.8632L19.4204 30.058L18.5874 30.6715L19.2288 31.4832L20.0134 30.8632ZM20.1254 30.7788H21.1254V28.7574L19.5186 29.9839L20.1254 30.7788ZM43.8751 30.779L44.4849 29.9865L42.8751 28.7477V30.779H43.8751ZM40.1251 17.2501V16.2501H39.1251V17.2501H40.1251ZM42.625 17.2501H43.625V16.2501H42.625V17.2501ZM42.625 23.5125L42.0157 24.3054L43.625 25.5423V23.5125H42.625ZM40.1251 21.5912H39.1251V22.0839L39.5157 22.3841L40.1251 21.5912ZM21.3753 29.8178L20.7656 29.0252L20.3753 29.3254V29.8178H21.3753ZM32.0001 21.646L32.6097 20.8533L32.0002 20.3845L31.3905 20.8533L32.0001 21.646ZM42.625 29.8177H43.625V29.3253L43.2347 29.025L42.625 29.8177ZM20.1254 43.0651H19.1254V44.0651H20.1254V43.0651ZM21.3753 41.8802H20.3753V42.8805L21.3757 42.8802L21.3753 41.8802ZM42.625 41.8718L42.6254 42.8718L43.625 42.8715V41.8718H42.625ZM43.8751 43.0651V44.0651C44.4274 44.0651 44.8751 43.6174 44.8751 43.0651H43.8751ZM43.3802 31.66C43.993 32.127 44.7295 32.3749 45.5 32.3749V30.3749C45.1664 30.3749 44.856 30.2701 44.5924 30.0692L43.3802 31.66ZM45.5 32.3749C47.4308 32.3749 49 30.8057 49 28.875H47C47 29.7012 46.3262 30.3749 45.5 30.3749V32.3749ZM49 28.875C49 27.7757 48.4949 26.756 47.6215 26.0912L46.4102 27.6827C46.7859 27.9686 47 28.3994 47 28.875H49ZM47.6252 26.094L44.4844 23.6802L43.2657 25.266L46.4065 27.6798L47.6252 26.094ZM44.875 24.4731V16.6251H42.875V24.4731H44.875ZM44.875 16.6251C44.875 15.7278 44.1476 15.0001 43.25 15.0001V17.0001C43.0429 17.0001 42.875 16.8322 42.875 16.6251H44.875ZM43.25 15.0001H39.5001V17.0001H43.25V15.0001ZM39.5001 15.0001C38.6025 15.0001 37.8751 15.7278 37.8751 16.6251H39.8751C39.8751 16.8322 39.7072 17.0001 39.5001 17.0001V15.0001ZM37.8751 16.6251V20.6306H39.8751V16.6251H37.8751ZM39.4844 19.8377L34.1232 15.7176L32.9045 17.3034L38.2657 21.4235L39.4844 19.8377ZM34.12 15.7151C33.5071 15.2481 32.7706 15.0001 32.0002 15.0001V17.0001C32.3338 17.0001 32.6442 17.105 32.9078 17.3059L34.12 15.7151ZM32.0002 15.0001C31.2291 15.0001 30.4928 15.2484 29.8783 15.7166L31.0903 17.3075C31.3565 17.1047 31.6671 17.0001 32.0002 17.0001V15.0001ZM29.8749 15.7192L25.1163 19.3763L26.335 20.9621L31.0937 17.3049L29.8749 15.7192ZM25.1164 19.3763C24.4048 19.9231 24.2711 20.9434 24.8182 21.6551L26.4038 20.436C26.5302 20.6004 26.4992 20.8359 26.335 20.9621L25.1164 19.3763ZM24.8181 21.655C25.3649 22.3663 26.3851 22.5002 27.0968 21.9531L25.878 20.3674C26.0423 20.2411 26.2777 20.2721 26.4038 20.4362L24.8181 21.655ZM27.0968 21.9531L31.8533 18.2976L30.6346 16.7118L25.8781 20.3674L27.0968 21.9531ZM31.8498 18.3003C31.8936 18.2669 31.9421 18.2501 32.0002 18.2501V16.2501C31.5061 16.2501 31.0316 16.4094 30.638 16.7092L31.8498 18.3003ZM32.0002 18.2501C32.0593 18.2501 32.1076 18.2676 32.1484 18.2987L33.3603 16.7077C32.9679 16.4088 32.4931 16.2501 32.0002 16.2501V18.2501ZM32.145 18.2961L45.6471 28.6727L46.8658 27.0869L33.3637 16.7103L32.145 18.2961ZM45.6509 28.6755C45.7163 28.7253 45.75 28.7938 45.75 28.875H47.75C47.75 28.1686 47.424 27.5116 46.8621 27.084L45.6509 28.6755ZM45.75 28.875C45.75 29.0119 45.637 29.125 45.5 29.125V31.125C46.7415 31.125 47.75 30.1165 47.75 28.875H45.75ZM45.5 29.125C45.4407 29.125 45.3926 29.1074 45.352 29.0765L44.14 30.6675C44.5323 30.9663 45.0072 31.125 45.5 31.125V29.125ZM45.3556 29.0793C44.6555 28.5409 33.5556 20.0038 32.9909 19.5695L31.7716 21.1548C32.3363 21.5892 43.4362 30.1263 44.1364 30.6647L45.3556 29.0793ZM32.9909 19.5695C32.4275 19.1361 31.6478 19.1192 31.0661 19.5279L32.2158 21.1644C32.0816 21.2587 31.9016 21.2548 31.7715 21.1547L32.9909 19.5695ZM31.0676 19.5268C31.0288 19.5539 27.8973 21.9626 24.8283 24.3231C23.282 25.5124 21.7366 26.7011 20.5777 27.5925C19.9983 28.0382 19.5155 28.4095 19.1776 28.6694C19.0086 28.7994 18.8759 28.9015 18.7854 28.9711C18.7401 29.006 18.7054 29.0326 18.6821 29.0506C18.6704 29.0596 18.6615 29.0664 18.6556 29.071C18.6526 29.0733 18.6504 29.075 18.6489 29.0762C18.6481 29.0767 18.6476 29.0772 18.6472 29.0775C18.647 29.0776 18.6468 29.0777 18.6468 29.0778C18.6467 29.0779 18.6466 29.0779 19.2563 29.8705C19.866 30.6632 19.8661 30.6631 19.8662 30.663C19.8662 30.663 19.8664 30.6629 19.8666 30.6627C19.867 30.6624 19.8675 30.662 19.8683 30.6614C19.8698 30.6603 19.872 30.6586 19.875 30.6563C19.8809 30.6517 19.8898 30.6449 19.9015 30.6359C19.9248 30.6179 19.9595 30.5912 20.0048 30.5564C20.0953 30.4868 20.228 30.3847 20.397 30.2547C20.7349 29.9948 21.2177 29.6234 21.7971 29.1778C22.956 28.2864 24.5014 27.0977 26.0477 25.9084C29.1639 23.5116 32.2247 21.1581 32.2143 21.1655L31.0676 19.5268ZM18.6498 29.0754C18.6041 29.1103 18.5432 29.1304 18.4698 29.1232L18.2762 31.1138C18.8418 31.1688 19.4074 31.013 19.8628 30.6656L18.6498 29.0754ZM18.4694 29.1232C18.294 29.1062 18.2759 29.0683 18.3019 29.0909C18.3304 29.1155 18.295 29.1101 18.2596 28.9539L16.3089 29.3951C16.4077 29.8319 16.6072 30.2685 16.9918 30.602C17.374 30.9333 17.8331 31.0709 18.2766 31.1139L18.4694 29.1232ZM18.2596 28.9539C18.2313 28.8286 18.2738 28.7332 18.3524 28.6733L17.1399 27.0828C16.4224 27.6297 16.1125 28.5269 16.3089 29.3951L18.2596 28.9539ZM18.3555 28.6709L22.6385 25.3794L21.4198 23.7936L17.1368 27.0851L18.3555 28.6709ZM22.6385 25.3794C23.3501 24.8326 23.4837 23.8123 22.9366 23.1006L21.3511 24.3197C21.2247 24.1553 21.2556 23.9198 21.4198 23.7936L22.6385 25.3794ZM22.9366 23.1006C22.3899 22.3895 21.3697 22.2554 20.6579 22.8027L21.8769 24.3882C21.7124 24.5148 21.4771 24.4835 21.3511 24.3197L22.9366 23.1006ZM20.6581 22.8026L16.3771 26.0925L17.5958 27.6783L21.8768 24.3884L20.6581 22.8026ZM16.3802 26.0902C15.2744 26.9331 14.783 28.3151 15.0898 29.671L17.0405 29.2297C16.9039 28.6259 17.1185 28.0422 17.5927 27.6807L16.3802 26.0902ZM15.0898 29.6709C15.2565 30.4079 15.6101 31.0554 16.1618 31.5377C16.7128 32.0195 17.4023 32.285 18.1557 32.3579L18.3484 30.3672C17.9453 30.3282 17.6682 30.1982 17.4783 30.0321C17.2889 29.8666 17.1274 29.6139 17.0405 29.2297L15.0898 29.6709ZM18.1547 32.3578C19.0381 32.4443 19.9157 32.1973 20.6208 31.6595L19.4079 30.0693C19.108 30.298 18.7342 30.405 18.3495 30.3673L18.1547 32.3578ZM20.799 30.2444L20.798 30.2432L19.2288 31.4832L19.2298 31.4844L20.799 30.2444ZM20.6064 31.6684C20.6399 31.6438 20.6815 31.6124 20.7321 31.5737L19.5186 29.9839C19.471 30.0203 19.4401 30.0435 19.4204 30.058L20.6064 31.6684ZM43.2652 31.5715L43.3764 31.6571L44.5961 30.0721L44.4849 29.9865L43.2652 31.5715ZM40.1251 18.2501H42.625V16.2501H40.1251V18.2501ZM41.625 17.2501V23.5125H43.625V17.2501H41.625ZM43.2344 22.7196L40.7344 20.7983L39.5157 22.3841L42.0157 24.3054L43.2344 22.7196ZM41.1251 21.5912V17.2501H39.1251V21.5912H41.1251ZM21.985 30.6105C22.8922 29.9127 31.5658 23.2414 32.6097 22.4387L31.3905 20.8533C30.3465 21.6561 21.6728 28.3274 20.7656 29.0252L21.985 30.6105ZM31.3904 22.4387L42.0154 30.6104L43.2347 29.025L32.6097 20.8533L31.3904 22.4387ZM19.1254 30.7788V43.0651H21.1254V30.7788H19.1254ZM22.3753 41.8802V29.8178H20.3753V41.8802H22.3753ZM41.625 29.8177V41.8718H43.625V29.8177H41.625ZM44.8751 43.0651V30.779H42.8751V43.0651H44.8751ZM20.1254 44.0651H43.8751V42.0651H20.1254V44.0651ZM42.6246 40.8718L21.3749 40.8802L21.3757 42.8802L42.6254 42.8718L42.6246 40.8718Z" fill="#1CABE2" mask="url(#path-4-inside-1_1_78)"/>
<rect x="17.8335" y="42.2333" width="28.3333" height="4.06667" rx="1.5" stroke="#1CABE2"/>
</g>
<defs>
<clipPath id="clip0_1_78">
<rect width="32" height="32" fill="white" transform="translate(16 16)"/>
</clipPath>
</defs>
</svg>
