<svg width="64" height="64" viewBox="0 0 64 64" fill="none" xmlns="http://www.w3.org/2000/svg">
<circle opacity="0.2" cx="32" cy="32" r="32" fill="#1CABE2"/>
<path d="M38.6875 44L35 40L36.5625 38.4375L38.6875 40.5625L43.4375 35.8125L45 37.6875L38.6875 44ZM33.0625 44H22.6875C21.9375 44 21.2917 43.75 20.75 43.25C20.25 42.7083 20 42.0625 20 41.3125V22.6875C20 21.9375 20.25 21.3125 20.75 20.8125C21.2917 20.2708 21.9375 20 22.6875 20H41.3125C42.0625 20 42.6875 20.2708 43.1875 20.8125C43.7292 21.3125 44 21.9375 44 22.6875V33.0625C43.1667 32.5625 42.2708 32.25 41.3125 32.125V22.6875H22.6875V41.3125H32.125C32.25 42.2708 32.5625 43.1667 33.0625 44ZM32 38.6875H25.3125V36H32V38.6875ZM35.5625 33.3125H25.3125V30.6875H38.6875V32.125C37.5625 32.2917 36.5208 32.6875 35.5625 33.3125ZM38.6875 28H25.3125V25.3125H38.6875V28Z" fill="#1CABE2"/>
<path d="M38.6875 44L38.3199 44.3389L38.6728 44.7218L39.0411 44.3536L38.6875 44ZM35 40L34.6464 39.6464L34.307 39.9859L34.6324 40.3389L35 40ZM36.5625 38.4375L36.9161 38.0839L36.5625 37.7304L36.2089 38.0839L36.5625 38.4375ZM38.6875 40.5625L38.3339 40.9161L38.6875 41.2696L39.0411 40.9161L38.6875 40.5625ZM43.4375 35.8125L43.8216 35.4924L43.4711 35.0718L43.0839 35.4589L43.4375 35.8125ZM45 37.6875L45.3536 38.0411L45.6764 37.7182L45.3841 37.3674L45 37.6875ZM33.0625 44V44.5H33.9456L33.4912 43.7428L33.0625 44ZM20.75 43.25L20.3826 43.5891L20.3962 43.6038L20.4109 43.6174L20.75 43.25ZM20.75 20.8125L21.1036 21.1661L20.75 20.8125ZM43.1875 20.8125L42.8201 21.1516L42.8337 21.1663L42.8484 21.1799L43.1875 20.8125ZM44 33.0625L43.7428 33.4912L44.5 33.9456V33.0625H44ZM41.3125 32.125H40.8125V32.564L41.2478 32.6208L41.3125 32.125ZM41.3125 22.6875H41.8125V22.1875H41.3125V22.6875ZM22.6875 22.6875V22.1875H22.1875V22.6875H22.6875ZM22.6875 41.3125H22.1875V41.8125H22.6875V41.3125ZM32.125 41.3125L32.6208 41.2478L32.564 40.8125H32.125V41.3125ZM32 38.6875V39.1875H32.5V38.6875H32ZM25.3125 38.6875H24.8125V39.1875H25.3125V38.6875ZM25.3125 36V35.5H24.8125V36H25.3125ZM32 36H32.5V35.5H32V36ZM35.5625 33.3125V33.8125H35.7111L35.8356 33.7313L35.5625 33.3125ZM25.3125 33.3125H24.8125V33.8125H25.3125V33.3125ZM25.3125 30.6875V30.1875H24.8125V30.6875H25.3125ZM38.6875 30.6875H39.1875V30.1875H38.6875V30.6875ZM38.6875 32.125L38.7608 32.6196L39.1875 32.5564V32.125H38.6875ZM38.6875 28V28.5H39.1875V28H38.6875ZM25.3125 28H24.8125V28.5H25.3125V28ZM25.3125 25.3125V24.8125H24.8125V25.3125H25.3125ZM38.6875 25.3125H39.1875V24.8125H38.6875V25.3125ZM39.0551 43.6611L35.3676 39.6611L34.6324 40.3389L38.3199 44.3389L39.0551 43.6611ZM35.3536 40.3536L36.9161 38.7911L36.2089 38.0839L34.6464 39.6464L35.3536 40.3536ZM36.2089 38.7911L38.3339 40.9161L39.0411 40.2089L36.9161 38.0839L36.2089 38.7911ZM39.0411 40.9161L43.7911 36.1661L43.0839 35.4589L38.3339 40.2089L39.0411 40.9161ZM43.0534 36.1326L44.6159 38.0076L45.3841 37.3674L43.8216 35.4924L43.0534 36.1326ZM44.6464 37.3339L38.3339 43.6464L39.0411 44.3536L45.3536 38.0411L44.6464 37.3339ZM33.0625 43.5H22.6875V44.5H33.0625V43.5ZM22.6875 43.5C22.0608 43.5 21.5367 43.2957 21.0891 42.8826L20.4109 43.6174C21.0467 44.2043 21.8142 44.5 22.6875 44.5V43.5ZM21.1174 42.9109C20.7043 42.4633 20.5 41.9392 20.5 41.3125H19.5C19.5 42.1858 19.7957 42.9533 20.3826 43.5891L21.1174 42.9109ZM20.5 41.3125V22.6875H19.5V41.3125H20.5ZM20.5 22.6875C20.5 22.0612 20.7035 21.5662 21.1036 21.1661L20.3964 20.4589C19.7965 21.0588 19.5 21.8138 19.5 22.6875H20.5ZM21.1036 21.1661C21.5537 20.7159 22.0733 20.5 22.6875 20.5V19.5C21.8017 19.5 21.0296 19.8258 20.3964 20.4589L21.1036 21.1661ZM22.6875 20.5H41.3125V19.5H22.6875V20.5ZM41.3125 20.5C41.9257 20.5 42.4166 20.7145 42.8201 21.1516L43.5549 20.4734C42.9584 19.8271 42.1993 19.5 41.3125 19.5V20.5ZM42.8484 21.1799C43.2855 21.5834 43.5 22.0743 43.5 22.6875H44.5C44.5 21.8007 44.1729 21.0416 43.5266 20.4451L42.8484 21.1799ZM43.5 22.6875V33.0625H44.5V22.6875H43.5ZM44.2572 32.6338C43.3653 32.0986 42.404 31.7631 41.3772 31.6292L41.2478 32.6208C42.1377 32.7369 42.968 33.0264 43.7428 33.4912L44.2572 32.6338ZM41.8125 32.125V22.6875H40.8125V32.125H41.8125ZM41.3125 22.1875H22.6875V23.1875H41.3125V22.1875ZM22.1875 22.6875V41.3125H23.1875V22.6875H22.1875ZM22.6875 41.8125H32.125V40.8125H22.6875V41.8125ZM31.6292 41.3772C31.7631 42.404 32.0986 43.3653 32.6338 44.2572L33.4912 43.7428C33.0264 42.968 32.7369 42.1377 32.6208 41.2478L31.6292 41.3772ZM32 38.1875H25.3125V39.1875H32V38.1875ZM25.8125 38.6875V36H24.8125V38.6875H25.8125ZM25.3125 36.5H32V35.5H25.3125V36.5ZM31.5 36V38.6875H32.5V36H31.5ZM35.5625 32.8125H25.3125V33.8125H35.5625V32.8125ZM25.8125 33.3125V30.6875H24.8125V33.3125H25.8125ZM25.3125 31.1875H38.6875V30.1875H25.3125V31.1875ZM38.1875 30.6875V32.125H39.1875V30.6875H38.1875ZM38.6142 31.6304C37.4175 31.8077 36.3077 32.2296 35.2894 32.8937L35.8356 33.7313C36.734 33.1454 37.7075 32.7756 38.7608 32.6196L38.6142 31.6304ZM38.6875 27.5H25.3125V28.5H38.6875V27.5ZM25.8125 28V25.3125H24.8125V28H25.8125ZM25.3125 25.8125H38.6875V24.8125H25.3125V25.8125ZM38.1875 25.3125V28H39.1875V25.3125H38.1875Z" fill="#BFE8F7"/>
</svg>
