<svg width="64" height="64" viewBox="0 0 64 64" fill="none" xmlns="http://www.w3.org/2000/svg">
<circle opacity="0.2" cx="32" cy="32" r="32" fill="#1CABE2"/>
<path d="M37.0127 34.5822C35.6457 33.2153 33.4217 33.2154 32.0548 34.5822C30.6881 35.949 30.6881 38.1731 32.0548 39.54C32.7383 40.2233 33.636 40.5651 34.5337 40.5651C35.4315 40.5651 36.3292 40.2233 37.0127 39.54C38.3795 38.1731 38.3795 35.949 37.0127 34.5822ZM36.1289 38.656C35.2495 39.5355 33.8184 39.5356 32.9388 38.656C32.0593 37.7766 32.0593 36.3455 32.9388 35.466C33.3785 35.0263 33.9562 34.8064 34.5338 34.8064C35.1114 34.8064 35.689 35.0263 36.1289 35.466C37.0083 36.3455 37.0083 37.7766 36.1289 38.656Z" fill="#1CABE2"/>
<path d="M42.1744 32.4828L42.1507 32.4557C41.9229 32.1963 41.5279 32.1707 41.2687 32.3986C41.0094 32.6264 40.9838 33.0213 41.2116 33.2806L41.2353 33.3077C41.3589 33.4484 41.5315 33.5202 41.7051 33.5202C41.8516 33.5202 41.9987 33.469 42.1174 33.3648C42.3767 33.137 42.4023 32.7421 42.1744 32.4828Z" fill="#1CABE2"/>
<path d="M43.6676 34.7383C43.5171 34.4276 43.1431 34.2979 42.8326 34.4483C42.5219 34.5988 42.3922 34.9727 42.5427 35.2833C43.1316 36.4986 43.4301 37.805 43.4301 39.1661V42.875C43.4301 45.0117 41.6918 46.75 39.5551 46.75H35.1874C34.6016 46.75 34.1249 46.2734 34.1249 45.6875C34.1249 45.1016 34.6016 44.625 35.1874 44.625H38.6874C40.1349 44.625 41.3124 43.4474 41.3124 42V40C41.3124 39.6549 41.0326 39.375 40.6874 39.375C40.3423 39.375 40.0624 39.6549 40.0624 40V42C40.0624 42.7582 39.4456 43.375 38.6874 43.375H35.9621L38.5599 40.7773C40.6944 38.6427 40.6944 35.1696 38.5599 33.035C36.4254 30.9005 32.9521 30.9006 30.8176 33.035L25.44 38.4126C25.0306 38.8221 24.6909 39.2891 24.4305 39.8009C24.274 40.1085 24.3964 40.4848 24.704 40.6414C25.0116 40.7978 25.3879 40.6755 25.5445 40.3679C25.7453 39.9733 26.0075 39.6129 26.3239 39.2965L28.6726 36.9478C28.4425 38.5938 28.5718 40.2676 29.0624 41.8778C29.1444 42.1473 29.3921 42.3207 29.66 42.3207C29.7204 42.3207 29.7817 42.3119 29.8424 42.2934C30.1726 42.1928 30.3588 41.8436 30.2581 41.5134C29.6382 39.4791 29.665 37.3301 30.3355 35.2988C30.3376 35.2924 30.3389 35.286 30.3408 35.2796L31.7015 33.9189C33.3487 32.2717 36.0289 32.2717 37.6759 33.9189C39.3231 35.566 39.3231 38.2461 37.6759 39.8933L32.2983 45.2709C31.9444 45.6248 31.5323 45.9103 31.0841 46.1177C31.1105 45.9782 31.1249 45.8346 31.1249 45.6875C31.1249 44.4124 30.0875 43.375 28.8124 43.375H25.3124C24.5543 43.375 23.9374 42.7582 23.9374 42V39.5854C23.9374 39.2402 23.6576 38.9604 23.3124 38.9604C22.9673 38.9604 22.6874 39.2402 22.6874 39.5854V42C22.6874 43.4474 23.865 44.625 25.3124 44.625H28.8124C29.3983 44.625 29.8749 45.1016 29.8749 45.6875C29.8749 46.2734 29.3983 46.75 28.8124 46.75H24.4448C22.3081 46.75 20.5698 45.0117 20.5698 42.875V39.1661C20.5698 34.2497 24.5696 30.25 29.4859 30.25H34.5138C36.2061 30.25 37.8526 30.7259 39.2753 31.6263C39.379 31.6919 39.4947 31.7233 39.6089 31.7233C39.8161 31.7233 40.0188 31.6204 40.1377 31.4324C40.3223 31.1408 40.2354 30.7547 39.9438 30.5701C38.8235 29.8611 37.5818 29.383 36.2855 29.1547C38.1176 27.9541 39.3303 25.8829 39.3303 23.5336V23.3304C39.3303 19.2884 36.0419 16 31.9999 16C27.9578 16 24.6695 19.2884 24.6695 23.3304V23.5336C24.6695 25.883 25.8823 27.9541 27.7144 29.1548C22.9503 29.9955 19.3198 34.1647 19.3198 39.1661V42.875C19.3198 45.7009 21.6189 48 24.4448 48H28.8124C29.2076 48 29.5798 47.9002 29.9054 47.7248C31.0456 47.6006 32.1211 47.1187 32.9729 46.3523C33.2591 47.3044 34.1434 48 35.1875 48H39.5551C42.3811 48 44.6801 45.7009 44.6801 42.875V39.1661C44.6801 37.6146 44.3394 36.1248 43.6676 34.7383ZM31.9999 29C30.0699 29 28.4999 27.4299 28.4999 25.5V23.8736C29.0133 23.8009 29.8219 23.6683 30.6863 23.4565C32.0803 23.1149 33.1064 22.7 33.7872 22.1998C34.2999 23.058 35.0305 23.5203 35.4998 23.7448V25.5H35.4999C35.4999 27.4299 33.9299 29 31.9999 29ZM25.9195 23.5336V23.3304C25.9195 19.9777 28.6471 17.25 31.9999 17.25C35.3528 17.25 38.0804 19.9777 38.0804 23.3304V23.5336C38.0804 25.1502 37.3748 26.6049 36.2556 27.6066C36.5714 26.9713 36.7499 26.2563 36.7499 25.5V23.323C36.7499 23.0426 36.5674 22.7977 36.2974 22.7222C36.2447 22.7067 35.0023 22.3253 34.5871 20.9314C34.5169 20.6957 34.3151 20.5231 34.0714 20.4903C33.8271 20.4577 33.5874 20.5709 33.4575 20.7796C32.8113 21.8181 29.6508 22.5095 27.8104 22.7013C27.492 22.7344 27.2499 23.0027 27.2499 23.323V25.5C27.2499 26.2563 27.4284 26.9713 27.7443 27.6066C26.6251 26.6049 25.9195 25.1502 25.9195 23.5336Z" fill="#1CABE2"/>
<path d="M33.0237 26.6296C32.7796 26.3855 32.384 26.3855 32.1398 26.6296C32.0672 26.7023 31.949 26.7022 31.8766 26.6296C31.6324 26.3856 31.2368 26.3856 30.9926 26.6296C30.7486 26.8737 30.7486 27.2694 30.9926 27.5136C31.2726 27.7935 31.6404 27.9335 32.0082 27.9335C32.3759 27.9335 32.7437 27.7935 33.0237 27.5136C33.2677 27.2695 33.2677 26.8738 33.0237 26.6296Z" fill="#1CABE2"/>
<path d="M34.619 37.2974C34.5278 37.2974 34.4536 37.2231 34.4536 37.132C34.4536 36.7868 34.1737 36.507 33.8286 36.507C33.4835 36.507 33.2036 36.7868 33.2036 37.132C33.2036 37.9125 33.8386 38.5474 34.619 38.5474C34.9642 38.5474 35.244 38.2675 35.244 37.9224C35.244 37.5773 34.9642 37.2974 34.619 37.2974Z" fill="#1CABE2"/>
<path d="M23.7543 36.5844C23.6381 36.4676 23.4769 36.4013 23.3125 36.4013C23.1481 36.4013 22.9869 36.4675 22.8706 36.5844C22.7544 36.7007 22.6875 36.8614 22.6875 37.0263C22.6875 37.1907 22.7543 37.3513 22.8706 37.4682C22.9869 37.5844 23.1481 37.6513 23.3125 37.6513C23.4769 37.6513 23.6381 37.5844 23.7543 37.4682C23.8706 37.3513 23.9375 37.1907 23.9375 37.0263C23.9374 36.8613 23.8706 36.7007 23.7543 36.5844Z" fill="#1CABE2"/>
<path d="M30.831 24.6344C30.7148 24.5175 30.5535 24.4512 30.3892 24.4512C30.2248 24.4512 30.0635 24.5175 29.9473 24.6344C29.8311 24.7506 29.7642 24.9119 29.7642 25.0762C29.7642 25.2406 29.831 25.4019 29.9473 25.5181C30.0635 25.6344 30.2248 25.7012 30.3892 25.7012C30.5542 25.7012 30.7148 25.6344 30.831 25.5181C30.9472 25.4019 31.0142 25.2406 31.0142 25.0762C31.0142 24.9112 30.9473 24.7506 30.831 24.6344Z" fill="#1CABE2"/>
<path d="M34.0693 24.6344C33.9531 24.5175 33.7918 24.4512 33.6274 24.4512C33.4631 24.4512 33.3018 24.5175 33.1856 24.6344C33.0693 24.7506 33.0024 24.9119 33.0024 25.0762C33.0024 25.2406 33.0693 25.4019 33.1856 25.5181C33.3018 25.6344 33.4631 25.7012 33.6274 25.7012C33.7918 25.7012 33.9531 25.6344 34.0693 25.5181C34.1855 25.4019 34.2524 25.2406 34.2524 25.0762C34.2524 24.9112 34.1856 24.7506 34.0693 24.6344Z" fill="#1CABE2"/>
</svg>
