<svg width="24" height="24" viewBox="0 0 24 24" fill="none" xmlns="http://www.w3.org/2000/svg">
<path d="M2.6875 0H21.3125C22.0625 0 22.6875 0.270833 23.1875 0.8125C23.7292 1.3125 24 1.9375 24 2.6875V21.3125C24 22.0625 23.7292 22.7083 23.1875 23.25C22.6875 23.75 22.0625 24 21.3125 24H2.6875C1.9375 24 1.29167 23.75 0.75 23.25C0.25 22.7083 0 22.0625 0 21.3125V2.6875C0 1.9375 0.25 1.3125 0.75 0.8125C1.29167 0.270833 1.9375 0 2.6875 0ZM20 2.6875H16.6875C15.3958 2.6875 14.2917 3.14583 13.375 4.0625C12.4583 4.9375 12 6.02083 12 7.3125V10.6875H9.3125V14.6875H12V24H16V14.6875H20V10.6875H16V8C16 7.625 16.125 7.3125 16.375 7.0625C16.625 6.8125 16.9375 6.6875 17.3125 6.6875H20V2.6875Z" fill="#1CABE2"/>
</svg>
