<svg width="14" height="13" viewBox="0 0 14 13" fill="none" xmlns="http://www.w3.org/2000/svg">
<path d="M7 12.2188L6.03125 11.3438C4.59375 10.0521 3.59375 9.11458 3.03125 8.53125C2.13542 7.61458 1.47917 6.80208 1.0625 6.09375C0.583333 5.28125 0.34375 4.46875 0.34375 3.65625C0.34375 2.98958 0.5 2.375 0.8125 1.8125C1.14583 1.25 1.59375 0.8125 2.15625 0.5C2.71875 0.166667 3.33333 0 4 0C4.58333 0 5.13542 0.125 5.65625 0.375C6.17708 0.625 6.625 0.958333 7 1.375C7.375 0.958333 7.82292 0.625 8.34375 0.375C8.86458 0.125 9.41667 0 10 0C10.6667 0 11.2812 0.166667 11.8438 0.5C12.4062 0.8125 12.8438 1.25 13.1562 1.8125C13.4896 2.375 13.6562 2.98958 13.6562 3.65625C13.6562 4.46875 13.4167 5.28125 12.9375 6.09375C12.5208 6.80208 11.8646 7.61458 10.9688 8.53125C10.4062 9.11458 9.40625 10.0521 7.96875 11.3438L7 12.2188Z" fill="#E2231A"/>
</svg>
