<svg width="28" height="28" viewBox="0 0 28 28" fill="none" xmlns="http://www.w3.org/2000/svg">
<path d="M8.375 0.6875H19.625C21 0.6875 22.2708 1.04167 23.4375 1.75C24.6458 2.41667 25.5833 3.35417 26.25 4.5625C26.9583 5.72917 27.3125 7 27.3125 8.375V19.625C27.3125 21 26.9583 22.2917 26.25 23.5C25.5833 24.6667 24.6458 25.5833 23.4375 26.25C22.2708 26.9583 21 27.3125 19.625 27.3125H8.375C7 27.3125 5.70833 26.9583 4.5 26.25C3.33333 25.5833 2.39583 24.6667 1.6875 23.5C1.02083 22.2917 0.6875 21 0.6875 19.625V8.375C0.6875 7 1.02083 5.72917 1.6875 4.5625C2.39583 3.35417 3.33333 2.41667 4.5 1.75C5.70833 1.04167 7 0.6875 8.375 0.6875ZM8.125 3.3125C6.79167 3.3125 5.64583 3.79167 4.6875 4.75C3.77083 5.66667 3.3125 6.79167 3.3125 8.125V19.875C3.3125 21.2083 3.77083 22.3542 4.6875 23.3125C5.64583 24.2292 6.79167 24.6875 8.125 24.6875H19.875C21.2083 24.6875 22.3333 24.2292 23.25 23.3125C24.2083 22.3542 24.6875 21.2083 24.6875 19.875V8.125C24.6875 6.79167 24.2083 5.66667 23.25 4.75C22.3333 3.79167 21.2083 3.3125 19.875 3.3125H8.125ZM21 5.3125C21.4583 5.3125 21.8542 5.47917 22.1875 5.8125C22.5208 6.14583 22.6875 6.54167 22.6875 7C22.6875 7.45833 22.5208 7.85417 22.1875 8.1875C21.8542 8.52083 21.4583 8.6875 21 8.6875C20.5417 8.6875 20.1458 8.52083 19.8125 8.1875C19.4792 7.85417 19.3125 7.45833 19.3125 7C19.3125 6.54167 19.4792 6.14583 19.8125 5.8125C20.1458 5.47917 20.5417 5.3125 21 5.3125ZM14 7.3125C14.875 7.3125 15.7083 7.5 16.5 7.875C17.3333 8.20833 18.0625 8.6875 18.6875 9.3125C19.3125 9.9375 19.7917 10.6667 20.125 11.5C20.5 12.2917 20.6875 13.125 20.6875 14C20.6875 15.2083 20.375 16.3333 19.75 17.375C19.1667 18.375 18.3542 19.1875 17.3125 19.8125C16.3125 20.3958 15.2083 20.6875 14 20.6875C12.7917 20.6875 11.6667 20.3958 10.625 19.8125C9.625 19.1875 8.8125 18.375 8.1875 17.375C7.60417 16.3333 7.3125 15.2083 7.3125 14C7.3125 13.125 7.47917 12.2917 7.8125 11.5C8.1875 10.6667 8.6875 9.9375 9.3125 9.3125C9.9375 8.6875 10.6458 8.20833 11.4375 7.875C12.2708 7.5 13.125 7.3125 14 7.3125ZM14 10C12.875 10 11.9167 10.3958 11.125 11.1875C10.375 11.9375 10 12.875 10 14C10 15.125 10.375 16.0833 11.125 16.875C11.9167 17.625 12.875 18 14 18C15.125 18 16.0625 17.625 16.8125 16.875C17.6042 16.0833 18 15.125 18 14C18 12.875 17.6042 11.9375 16.8125 11.1875C16.0625 10.3958 15.125 10 14 10Z" fill="#1CABE2"/>
</svg>
