<svg width="19" height="18" viewBox="0 0 19 18" fill="none" xmlns="http://www.w3.org/2000/svg">
<path d="M7.48646 0C8.64271 0 9.72084 0.296875 10.7208 0.890625C11.7208 1.45312 12.5021 2.23438 13.0646 3.23438C13.6583 4.23437 13.9552 5.32812 13.9552 6.51562C13.9552 8.10938 13.4396 9.51562 12.4083 10.7344L12.6896 11.0156H13.4865L18.4552 15.9844L16.9552 17.4844L11.9865 12.5156V11.7188L11.7052 11.4375C10.4865 12.4688 9.08021 12.9844 7.48646 12.9844C6.61146 12.9844 5.76771 12.8281 4.95521 12.5156C4.17396 12.1719 3.47084 11.7031 2.84584 11.1094C2.25209 10.4844 1.78334 9.78125 1.43959 9C1.12709 8.1875 0.970838 7.35938 0.970838 6.51562C0.970838 5.32812 1.25209 4.23437 1.81459 3.23438C2.40834 2.23438 3.20521 1.45312 4.20521 0.890625C5.20521 0.296875 6.29896 0 7.48646 0ZM7.48646 2.01562C6.23646 2.01562 5.17396 2.45312 4.29896 3.32812C3.42396 4.20313 2.98646 5.26562 2.98646 6.51562C2.98646 7.76562 3.42396 8.82812 4.29896 9.70312C5.17396 10.5781 6.23646 11.0156 7.48646 11.0156C8.73646 11.0156 9.79896 10.5781 10.674 9.70312C11.549 8.82812 11.9865 7.76562 11.9865 6.51562C11.9865 5.26562 11.549 4.20313 10.674 3.32812C9.79896 2.45312 8.73646 2.01562 7.48646 2.01562Z" fill="#1CABE2"/>
</svg>
