<svg width="175" height="30" viewBox="0 0 175 30" fill="none" xmlns="http://www.w3.org/2000/svg">
<path d="M15.0773 23.9744C15.0773 27.4359 12.1134 30 7.86082 30C5.2835 30 3.35051 29.2308 2.06185 28.4615C0.773194 27.6923 0.128864 26.9231 0.128864 26.7949C0.128864 26.7949 0.128866 26.7949 0 26.6667C0 26.6667 -9.21721e-07 26.6667 1.67526 24.359C1.67526 24.359 1.67526 24.359 1.93299 24.6154C1.93299 24.6154 4.12371 27.0513 7.86082 27.0513C9.79381 27.0513 11.7268 26.1538 11.7268 23.9744C11.7268 22.1795 9.53608 21.1538 7.08763 20.2564C4.12371 18.9744 0.64433 17.6923 0.64433 13.7179C0.64433 9.74359 4.38144 7.94872 7.73196 7.94872C12.1134 7.94872 14.1753 10.1282 14.1753 10.2564C14.1753 10.2564 14.1753 10.2564 14.3041 10.2564C14.3041 10.2564 14.3041 10.2564 12.8866 12.8205C12.8866 12.8205 12.8866 12.8205 12.6289 12.5641C12.6289 12.5641 10.9536 10.7692 7.73196 10.7692C5.79897 10.7692 3.86598 11.5385 3.86598 13.8462C3.86598 15.7692 5.92783 16.6667 8.50515 17.6923C11.5979 18.7179 15.0773 20.1282 15.0773 23.9744ZM29.3814 10.7692C25 10.7692 21.5206 14.2308 21.5206 18.718C21.5206 23.3333 25 26.9231 29.3814 26.9231C33.7629 26.9231 37.2423 23.3333 37.2423 18.718C37.2423 14.359 33.7629 10.7692 29.3814 10.7692ZM40.4639 18.8462C40.4639 25.1282 35.567 30 29.3814 30C23.1959 30 18.299 25.1282 18.299 18.8462C18.299 12.6923 23.1959 7.94872 29.3814 7.94872C35.6959 7.94872 40.4639 12.6923 40.4639 18.8462ZM53.9948 0C53.9948 0 53.4794 0 52.7062 0C50.5155 0 45.4897 0.641024 45.4897 7.82051C45.4897 8.58974 45.4897 8.58974 45.4897 8.58974C42.7835 8.58974 42.7835 8.58974 42.7835 8.58974C42.7835 11.4103 42.7835 11.4103 42.7835 11.4103C45.4897 11.4103 45.4897 11.4103 45.4897 11.4103C45.4897 29.4872 45.4897 29.4872 45.4897 29.4872C48.5825 29.4872 48.5825 29.4872 48.5825 29.4872C48.5825 11.4103 48.5825 11.4103 48.5825 11.4103C53.866 11.4103 53.866 11.4103 53.866 11.4103C53.866 8.58974 53.866 8.58974 53.866 8.58974C48.5825 8.58974 48.5825 8.58974 48.5825 8.58974C48.5825 7.82051 48.5825 7.82051 48.5825 7.82051C48.5825 6.02564 49.0979 2.82051 53.0928 2.82051C53.6082 2.82051 53.9948 2.94871 53.9948 2.94871C54.2526 2.94871 54.2526 2.94871 54.2526 2.94871C54.2526 0.128199 54.2526 0.128203 54.2526 0.128203L53.9948 0ZM68.9433 26.7949C68.6856 26.9231 68.6856 26.9231 68.6856 26.9231C68.6856 26.9231 68.299 27.0513 67.7835 27.0513C66.1083 27.0513 63.2732 26.4103 63.2732 21.5385C63.2732 11.282 63.2732 11.282 63.2732 11.282C68.4278 11.282 68.4278 11.282 68.4278 11.282C68.4278 8.46153 68.4278 8.46154 68.4278 8.46154C63.2732 8.46154 63.2732 8.46154 63.2732 8.46154C63.2732 2.4359 63.2732 2.43589 63.2732 2.43589C60.1804 2.43589 60.1804 2.43589 60.1804 2.43589C60.1804 8.46153 60.1804 8.46154 60.1804 8.46154C57.3454 8.46154 57.3454 8.46154 57.3454 8.46154C57.3454 11.2821 57.3454 11.282 57.3454 11.282C60.0515 11.282 60.0516 11.282 60.0516 11.282C60.0516 21.7949 60.0516 21.7949 60.0516 21.7949C60.0516 28.718 64.8196 29.7436 67.5258 29.7436C68.299 29.7436 68.8144 29.6154 68.8144 29.6154C68.9433 29.6154 68.9433 29.6154 68.9433 29.6154V26.7949ZM72.9381 26.7949C72.9381 26.7949 75.7732 29.8718 81.0567 29.8718C86.0825 29.8718 89.1753 27.0513 89.1753 23.4615C89.1753 16.7949 78.9948 17.0513 78.9948 14.2308C78.9948 12.8205 80.2835 12.3077 81.701 12.3077C84.7938 12.3077 86.7268 14.1026 86.7268 14.1026C86.7268 14.1026 86.7268 14.1026 88.6598 10.1282C88.6598 10.1282 86.3402 7.82051 81.701 7.82051C77.1907 7.82051 73.7113 9.99999 73.7113 13.9744C73.7113 20.7692 83.8918 20.3846 83.8918 23.4615C83.8918 24.7436 82.6031 25.2564 81.1856 25.2564C77.835 25.2564 75.5155 22.9487 75.5155 22.9487L72.9381 26.7949ZM97.9381 16.2821C98.4536 13.5897 100.258 12.0513 102.964 12.0513C105.284 12.0513 106.959 13.5897 107.088 16.2821H97.9381ZM92.3969 18.9744C92.3969 24.8718 96.7784 30 103.737 30C108.892 30 112.113 26.9231 112.113 26.9231C112.113 26.9231 112.113 26.9231 110.18 23.0769C110.18 23.0769 107.474 25.3846 104.124 25.3846C101.031 25.3846 98.1959 23.5897 97.9381 19.8718C97.9381 19.8718 97.9381 19.8718 112.371 19.8718C112.371 19.8718 112.5 18.4615 112.5 17.9487C112.5 12.4359 109.278 7.94872 103.351 7.94872C96.9072 7.94872 92.3969 12.4359 92.3969 18.9744ZM117.526 29.4872C117.526 29.4872 117.526 29.4872 122.68 29.4872C122.68 29.4872 122.68 29.4872 122.68 21.1539C122.68 19.8718 122.809 18.7179 123.196 17.6923C124.098 14.6154 126.675 13.3333 128.866 13.3333C129.51 13.3333 130.155 13.4615 130.155 13.4615C130.155 13.4615 130.155 13.4615 130.155 8.20512C130.155 8.20512 129.639 8.20512 129.253 8.20512C126.031 8.20512 123.454 10.5128 122.552 13.5897C122.552 13.5897 122.552 13.5897 122.423 13.5897C122.423 13.5897 122.552 12.9487 122.552 12.0513C122.552 12.0513 122.552 12.0513 122.552 8.46154C122.552 8.46154 122.552 8.46154 117.655 8.46154V29.4872H117.526ZM140.077 29.4872C140.077 29.4872 140.077 29.4872 146.134 29.4872C146.134 29.4872 146.134 29.4872 153.608 8.33333C153.608 8.33333 153.608 8.33333 148.067 8.33333C148.067 8.33333 148.067 8.33333 143.814 21.4103C143.299 22.5641 143.17 23.9744 143.041 23.9744C142.912 23.9744 142.655 22.5641 142.268 21.4103C142.268 21.4103 142.268 21.4103 137.887 8.33333C137.887 8.33333 137.887 8.33333 132.474 8.33333L140.077 29.4872ZM160.438 16.2821C160.954 13.5897 162.758 12.0513 165.335 12.0513C167.655 12.0513 169.459 13.5897 169.459 16.2821H160.438ZM154.897 18.9744C154.897 24.8718 159.278 30 166.237 30C171.392 30 174.613 26.9231 174.613 26.9231C174.613 26.9231 174.613 26.9231 172.552 23.0769C172.552 23.0769 169.845 25.3846 166.624 25.3846C163.531 25.3846 160.696 23.5897 160.438 19.8718C160.438 19.8718 160.438 19.8718 174.871 19.8718C174.871 19.8718 175 18.4615 175 17.9487C175 12.4359 171.778 7.94872 165.722 7.94872C159.278 7.94872 154.897 12.4359 154.897 18.9744Z" fill="black"/>
</svg>
