<svg width="26" height="22" viewBox="0 0 26 22" fill="none" xmlns="http://www.w3.org/2000/svg">
<path d="M10.0625 19.875L10.4375 14.25L20.625 5C20.875 4.79167 20.8958 4.66667 20.6875 4.625C20.5208 4.54167 20.2708 4.58333 19.9375 4.75L7.3125 12.75L1.875 11C1.25 10.8333 0.958333 10.5833 1 10.25C1.04167 9.875 1.41667 9.54167 2.125 9.25L23.4375 1.0625C23.9375 0.8125 24.3542 0.854167 24.6875 1.1875C25.0208 1.52083 25.1042 2.0625 24.9375 2.8125L21.3125 19.875C21.1875 20.4583 20.9375 20.8333 20.5625 21C20.2292 21.1667 19.8125 21.1042 19.3125 20.8125L13.8125 16.75L11.125 19.3125C10.9583 19.5208 10.7917 19.6667 10.625 19.75C10.5 19.8333 10.3125 19.875 10.0625 19.875Z" fill="#1CABE2"/>
</svg>
