<svg width="158" height="38" viewBox="0 0 158 38" fill="none" xmlns="http://www.w3.org/2000/svg">
<path d="M136.259 0.356567C128.154 0.356567 121.598 6.93954 121.598 15.0175C121.598 23.0954 128.181 29.6783 136.259 29.6783C144.336 29.6783 150.919 23.0954 150.919 15.0175C150.946 6.93954 144.363 0.356567 136.259 0.356567ZM147.694 6.83463C146.933 7.33295 146.146 7.80503 145.333 8.19844C144.861 7.22804 144.258 6.31009 143.576 5.4446C144.179 5.07742 144.756 4.65779 145.281 4.21193C146.199 4.99874 147.012 5.86423 147.694 6.83463ZM141.53 1.95642C142.71 2.4285 143.812 3.05795 144.809 3.84476C144.31 4.26439 143.759 4.63157 143.182 4.97252C142.474 4.15948 141.661 3.3989 140.77 2.74323C141.058 2.50718 141.32 2.24491 141.53 1.95642ZM142.658 5.28724C141.871 5.70687 141.032 6.04782 140.193 6.31009C139.825 5.49706 139.432 4.68402 138.96 3.92344C139.432 3.71362 139.878 3.45135 140.297 3.13663C141.163 3.7923 141.976 4.50043 142.658 5.28724ZM140.927 1.7466C140.717 1.98264 140.507 2.19246 140.271 2.40227C139.511 1.87773 138.671 1.40565 137.806 1.03847C138.907 1.16961 139.93 1.40565 140.927 1.7466ZM139.799 2.79568C139.458 3.05795 139.065 3.26776 138.671 3.42512C138.252 2.74322 137.753 2.08755 137.255 1.4581C138.147 1.82528 138.986 2.27114 139.799 2.79568ZM136.573 1.56301C137.124 2.21869 137.622 2.90059 138.094 3.63494C137.596 3.7923 137.098 3.87098 136.573 3.89721V1.56301ZM136.573 4.50043C137.203 4.47421 137.832 4.3693 138.409 4.15948C138.855 4.89384 139.248 5.68064 139.616 6.49368C138.619 6.75595 137.596 6.88709 136.573 6.91332V4.50043ZM135.944 1.58924V3.89721C135.446 3.87098 134.947 3.7923 134.449 3.63494C134.921 2.92681 135.419 2.24491 135.944 1.58924ZM133.872 3.42512C133.478 3.26776 133.085 3.03172 132.744 2.79568C133.531 2.27114 134.396 1.82528 135.288 1.4581C134.79 2.08755 134.318 2.74322 133.872 3.42512ZM134.737 1.03847C133.872 1.40565 133.033 1.87773 132.272 2.40227C132.036 2.19246 131.826 1.95641 131.616 1.7466C132.613 1.37942 133.662 1.14338 134.737 1.03847ZM144.782 26.2164C142.841 25.1411 142.789 23.6724 142.894 23.1216C142.999 22.5708 143.366 22.8069 143.628 22.8069C144.913 22.8069 146.251 22.4397 147.93 20.7349C149.792 18.8204 150.395 14.5716 147.51 11.7915C144.415 8.80166 141.111 9.3262 138.986 12.0014C138.54 12.5521 137.491 12.9455 136.573 12.9193C135.209 12.8668 136.075 13.9421 136.075 14.1782C136.075 14.4142 135.865 14.5716 135.734 14.5191C135.262 14.388 135.445 15.0699 135.445 15.2797C135.445 15.4895 135.262 15.5945 135.157 15.5945C134.58 15.5945 134.737 16.119 134.764 16.2501C134.79 16.3813 134.737 16.6173 134.528 16.7222C134.344 16.8271 134.134 17.273 134.134 17.6139C134.134 18.2434 134.711 18.663 135.655 19.3711C136.599 20.0793 136.731 20.7612 136.731 21.2333C136.757 21.7053 136.783 22.4921 137.019 23.0167C137.281 23.6461 137.229 24.7739 135.918 24.8264C134.318 24.8788 131.459 26.1902 131.197 26.2688C130.279 26.5836 129.099 26.7147 128.154 26.4787C127.656 26.1115 127.158 25.7443 126.712 25.2984C126.528 24.6428 126.843 23.9609 127.184 23.4888C127.735 24.0395 128.522 23.9871 128.967 24.0133C129.413 24.0395 131.616 23.6986 131.931 23.5937C132.246 23.4888 132.377 23.515 132.561 23.5937C133.4 23.9084 134.554 23.9871 135.026 22.3872C135.498 20.7874 134.396 21.2333 134.239 21.2857C134.108 21.3644 133.898 21.3382 133.977 21.207C134.187 20.7874 133.872 20.8398 133.688 20.8136C133.242 20.7612 132.639 21.2595 132.456 21.4168C132.272 21.6004 132.062 21.5742 132.01 21.548C131.407 21.2595 129.623 21.6791 129.072 20.7087C129.125 20.4464 128.626 16.5386 128.364 15.8567C128.312 15.6994 128.259 15.4633 128.443 15.2273C128.889 14.5454 130.148 15.2797 130.83 15.2535C131.643 15.2273 131.774 14.8863 131.984 14.624C132.193 14.3618 132.351 14.5191 132.456 14.4405C132.613 14.3356 132.456 14.152 132.508 14.0471C132.561 13.9421 132.613 13.9946 132.744 13.8635C132.875 13.7323 132.718 13.4701 132.797 13.3914C133.006 13.1029 133.531 13.3389 133.216 12.5521C133.033 12.1325 133.295 11.6604 133.531 11.3457C133.924 10.8474 135.445 8.69675 132.77 6.49368C130.226 4.39552 127.63 4.55288 125.978 6.36255C124.325 8.17221 125.138 10.7949 125.322 11.4768C125.505 12.1587 125.007 12.7882 124.43 13.0767C123.984 13.2865 122.935 13.9946 122.148 14.6765C122.28 9.0377 125.715 4.05457 130.961 1.93019C131.197 2.21868 131.433 2.48095 131.695 2.717C131.118 3.13663 129.833 4.29062 129.833 4.29062C129.833 4.29062 130.017 4.31684 130.174 4.3693C130.279 4.39552 130.515 4.4742 130.515 4.4742C130.515 4.4742 131.643 3.53004 132.167 3.13663C132.587 3.45135 133.033 3.71362 133.505 3.92344C133.242 4.34307 132.613 5.54951 132.613 5.54951C132.613 5.54951 132.77 5.62819 132.901 5.7331C133.033 5.81178 133.111 5.89046 133.111 5.89046C133.111 5.89046 133.819 4.57911 134.082 4.13325C134.659 4.31684 135.288 4.44798 135.918 4.4742V6.88709C135.577 6.88709 134.685 6.83464 134.318 6.80841L134.082 6.78218L134.213 6.96577C134.318 7.0969 134.37 7.25427 134.449 7.35917L134.475 7.41163H134.528C134.79 7.43785 135.603 7.46408 135.891 7.46408V11.8702H136.495V10.8736C137.386 10.8211 138.147 10.7687 139.039 10.69H139.065L139.852 9.98187L139.432 10.0081C138.488 10.1392 137.649 10.1917 136.888 10.2441C136.888 10.2441 136.626 10.2704 136.495 10.2704V7.49031C137.596 7.46408 138.698 7.30672 139.799 7.01822C140.088 7.75258 140.665 9.50979 140.665 9.50979L141.242 9.3262C141.242 9.3262 140.691 7.56899 140.402 6.86086C141.32 6.57237 142.212 6.20519 143.025 5.7331C143.707 6.57236 144.284 7.46408 144.756 8.43448C144.336 8.6443 143.523 8.90657 143.523 8.90657C144.153 8.98525 144.625 9.11638 144.625 9.11638C144.625 9.11638 144.861 9.01148 144.992 8.95902C145.045 9.09016 145.149 9.35243 145.149 9.35243L145.936 9.69338L145.831 9.48356C145.831 9.48356 145.569 8.85411 145.517 8.72298C146.356 8.30334 147.169 7.83126 147.956 7.30672C149.451 9.58847 150.238 12.2636 150.238 14.9912C150.342 19.581 148.166 23.6461 144.782 26.2164Z" fill="#009FE3"/>
<path d="M120.26 4.23815L120.024 4.44797C119.159 5.20855 117.192 7.22804 117.506 9.43111L117.533 9.58847L117.638 10.0343L117.9 9.77205C119.106 8.67052 119.998 6.8084 120.365 4.65778L120.47 4.05457L120.26 4.23815Z" fill="#009FE3"/>
<path d="M116.274 8.06732L116.169 8.32959C116.038 8.69677 115.775 9.48358 115.644 10.5064C115.461 11.9751 115.513 14.0209 116.772 15.5682L116.903 15.7518L117.06 15.9354L117.244 14.9913C117.454 13.339 117.165 9.87699 116.562 8.32959L116.352 7.80505L116.274 8.06732Z" fill="#009FE3"/>
<path d="M114.805 14.0208L114.779 14.2831C114.674 15.778 114.753 19.4236 117.716 21.3644L118.057 21.6004L118.031 21.1808C117.978 19.7907 116.352 15.6469 115.146 14.1519L114.805 13.7323V14.0208Z" fill="#009FE3"/>
<path d="M115.329 20.5776L115.382 20.8399C115.828 22.938 117.821 26.3475 120.889 27.3442L121.309 27.4753L121.152 27.0557C120.575 25.482 117.611 21.8103 115.696 20.6038L115.277 20.3416L115.329 20.5776Z" fill="#009FE3"/>
<path d="M121.493 7.41151L121.257 7.56887C118.975 8.9589 117.9 10.6637 117.979 12.7618L118.005 13.2339L118.346 12.9454C119.578 11.9226 121.126 9.29985 121.598 7.80491L121.755 7.25415L121.493 7.41151Z" fill="#009FE3"/>
<path d="M120.155 12.0014L119.972 12.1587C119.395 12.7095 117.48 14.729 117.664 17.2467C117.69 17.6401 117.769 18.0336 117.926 18.4794L118.057 18.8728L118.293 18.5319C119.211 17.2467 120.391 13.8897 120.339 12.3161L120.313 11.844L120.155 12.0014Z" fill="#009FE3"/>
<path d="M120.26 16.3288L120.129 16.5124C119.159 17.9287 118.687 19.3974 118.713 20.735C118.739 21.7316 119.054 22.6758 119.657 23.5675L119.867 23.856L120.024 23.5412C120.444 22.7544 120.759 20.2367 120.706 18.2434C120.68 17.5353 120.628 16.9583 120.496 16.5649L120.365 16.119L120.26 16.3288Z" fill="#009FE3"/>
<path d="M121.362 20.9711L121.309 21.1809C121.021 22.0988 120.89 23.0168 120.916 23.856C120.968 25.7968 121.834 27.318 123.46 28.3671L123.748 28.5507L123.801 28.1835L123.827 27.895C123.775 26.3214 122.594 22.3611 121.676 21.1284L121.414 20.7875L121.362 20.9711Z" fill="#009FE3"/>
<path d="M118.136 27.1344L118.267 27.3442C119.5 29.4162 121.598 32.0913 125.506 31.4094L125.82 31.357L125.637 31.0947C124.903 30.0194 120.155 27.318 118.477 27.0557L118.005 26.9771L118.136 27.1344Z" fill="#009FE3"/>
<path d="M123.932 32.3798L123.329 32.5371L123.906 32.7732C126.397 33.796 129.518 34.0845 131.328 33.4813C132.01 33.2453 132.429 32.8781 132.928 32.3798C136.127 32.7207 139.091 35.3697 140.848 37.5203L140.953 37.6252L141.084 37.5727C141.268 37.4941 141.583 37.2842 141.714 37.1269L141.845 36.9958L141.74 36.8384C139.93 34.478 137.072 32.983 136.967 32.9306C134.37 31.7503 129.859 30.7799 123.932 32.3798Z" fill="#009FE3"/>
<path d="M124.063 25.7705L124.089 25.9803C124.456 28.3407 125.427 31.4093 129.387 31.0684L129.649 31.0421L129.597 30.8061C129.335 29.7308 125.689 26.636 124.43 25.7705L124.063 25.5607V25.7705Z" fill="#009FE3"/>
<path d="M152.1 4.05457L152.205 4.65778C152.572 6.8084 153.49 8.67052 154.67 9.77205L154.958 10.0343L155.063 9.58847L155.089 9.43111C155.404 7.22804 153.437 5.20855 152.572 4.44797L152.336 4.23815L152.1 4.05457Z" fill="#009FE3"/>
<path d="M156.217 7.80505L156.007 8.32959C155.404 9.87699 155.116 13.339 155.325 14.9913L155.509 15.9354L155.666 15.7518L155.797 15.5682C157.056 14.0209 157.109 11.9751 156.925 10.5064C156.794 9.48358 156.558 8.69677 156.401 8.32959L156.296 8.06732L156.217 7.80505Z" fill="#009FE3"/>
<path d="M157.765 13.7585L157.424 14.1782C156.217 15.6731 154.591 19.817 154.539 21.207L154.513 21.6266L154.854 21.3906C157.817 19.4498 157.896 15.778 157.791 14.3093L157.765 14.047V13.7585Z" fill="#009FE3"/>
<path d="M157.319 20.3153L156.899 20.5776C154.985 21.784 152.021 25.4558 151.444 27.0294L151.287 27.449L151.706 27.3179C154.775 26.3213 156.768 22.9118 157.214 20.8136L157.266 20.5513L157.319 20.3153Z" fill="#009FE3"/>
<path d="M150.946 7.2019L151.103 7.75267C151.523 9.24761 153.018 11.8965 154.25 12.9456L154.591 13.2341L154.618 12.762C154.749 10.6639 153.7 8.95911 151.444 7.51663L151.208 7.35926L150.946 7.2019Z" fill="#009FE3"/>
<path d="M152.257 11.844L152.231 12.3161C152.178 13.8897 153.358 17.2467 154.276 18.5319L154.512 18.8728L154.644 18.4794C154.801 18.0598 154.88 17.6401 154.906 17.2467C155.063 14.7552 153.175 12.7357 152.598 12.1587L152.414 12.0014L152.257 11.844Z" fill="#009FE3"/>
<path d="M152.205 16.1453L152.074 16.5911C151.969 16.9845 151.89 17.5615 151.864 18.2697C151.811 20.2629 152.152 22.7807 152.546 23.5675L152.703 23.8822L152.913 23.5937C153.516 22.702 153.831 21.7578 153.857 20.7612C153.883 19.4236 153.411 17.9549 152.441 16.5387L152.31 16.3551L152.205 16.1453Z" fill="#009FE3"/>
<path d="M151.156 20.7875L150.893 21.1284C149.975 22.3349 148.795 26.3214 148.743 27.895L148.769 28.1835L148.821 28.5507L149.11 28.3671C150.762 27.318 151.601 25.7968 151.654 23.856C151.68 22.9905 151.549 22.0988 151.26 21.1809L151.208 20.9711L151.156 20.7875Z" fill="#009FE3"/>
<path d="M154.565 26.9246L154.119 27.0032C152.441 27.2655 147.694 29.9669 146.959 31.0422L146.776 31.3045L147.091 31.3569C151.025 32.0388 153.097 29.3637 154.329 27.2917L154.46 27.0819L154.565 26.9246Z" fill="#009FE3"/>
<path d="M135.656 33.0093C135.524 33.0618 132.692 34.5305 130.882 36.9171L130.777 37.0745L130.908 37.2056C131.04 37.3368 131.328 37.5728 131.538 37.6515L131.669 37.7039L131.774 37.599C133.505 35.4222 136.495 32.7733 139.695 32.4585C140.193 32.9568 140.612 33.324 141.294 33.5601C143.104 34.1633 146.225 33.8748 148.717 32.8519L149.32 32.6159L148.717 32.4585C142.737 30.78 138.2 31.7504 135.656 33.0093Z" fill="#009FE3"/>
<path d="M148.559 25.5607L148.192 25.7705C146.933 26.636 143.287 29.7308 143.025 30.8061L142.973 31.0421L143.235 31.0684C147.195 31.4093 148.166 28.3407 148.533 25.9803L148.559 25.7705V25.5607Z" fill="#009FE3"/>
<path d="M47.1392 1.37952H52.1485V5.94302H49.4996H47.1392V1.37952ZM47.5326 11.136H49.4734H51.7289V33.4027H47.5063V11.136H47.5326Z" fill="#009FE3"/>
<path d="M15.7194 11.1621H19.942V33.4288H15.8243V30.1504H15.7194C14.0409 32.9567 11.1821 34.0845 8.08735 34.0845C3.41895 34.0845 0.77002 30.5438 0.77002 26.059V11.1621H4.99257V24.3281C4.99257 28.1834 5.88428 31.0159 9.92324 31.0159C11.6542 31.0159 14.0147 30.1242 14.8801 27.8162C15.667 25.7181 15.7194 23.1216 15.7194 22.5708V11.1621Z" fill="#009FE3"/>
<path d="M28.361 14.4404H28.4397C29.856 11.6603 32.9507 10.5063 35.18 10.5063C36.7274 10.5063 43.5989 10.8998 43.5989 18.0335V33.4287H39.3764V19.4235C39.3764 15.7517 37.829 13.7585 34.2883 13.7585C34.2883 13.7585 31.9803 13.6274 30.1969 15.4108C29.5675 16.0402 28.4135 17.0106 28.4135 21.3643V33.4812H24.1909V11.2145H28.3086V14.4404H28.361Z" fill="#009FE3"/>
<path d="M69.3796 18.2958C69.1698 15.5157 67.8322 13.5749 64.8424 13.5749C60.8296 13.5749 59.2823 17.0369 59.2823 22.2561C59.2823 27.449 60.8296 30.9372 64.8424 30.9372C67.6224 30.9372 69.3272 29.1275 69.5632 25.9541H73.7595C73.3924 30.9372 69.6944 33.9795 64.8162 33.9795C57.7349 33.9795 54.9023 28.9702 54.9023 22.4397C54.9023 15.9616 58.1545 10.5326 65.1833 10.5326C69.8517 10.5326 73.3661 13.4962 73.576 18.2958H69.3796Z" fill="#009FE3"/>
<path d="M80.0541 23.0691C79.7394 26.9507 81.3392 30.9634 85.6142 30.9634C88.8664 30.9634 90.5187 29.6783 90.9907 26.4524H95.3969C94.7412 31.488 90.8596 33.9795 85.5618 33.9795C78.4542 33.9795 75.6479 28.9702 75.6479 22.4397C75.6479 15.9616 78.9263 10.5326 85.9289 10.5326C92.5381 10.6637 95.6591 14.8601 95.6591 20.9709V23.0429H80.0541V23.0691ZM91.2268 20.1579C91.3055 16.4599 89.6269 13.6012 85.588 13.6012C82.0998 13.6012 80.0279 16.5386 80.0279 20.1579H91.2268Z" fill="#009FE3"/>
<path d="M100.38 33.3239V14.1257H96.5771V11.2145H100.38V6.46746C100.511 1.61546 104.157 0.356567 107.304 0.356567C108.327 0.356567 109.297 0.618837 110.294 0.802425V4.29062C109.586 4.26439 108.878 4.15948 108.169 4.15948C105.783 4.15948 104.419 4.78893 104.55 7.20181V11.267H109.664V14.1257H104.55V33.3239H100.38Z" fill="#009FE3"/>
</svg>
